<svg xmlns="http://www.w3.org/2000/svg" viewBox="0 0 204.29 119.05"><defs><style>.cls-1{isolation:isolate;}.cls-2{fill:#231f20;}.cls-3,.cls-4{fill:#2899d5;}.cls-4,.cls-5,.cls-6,.cls-9{mix-blend-mode:multiply;}.cls-5{fill:#c95998;}.cls-6{fill:#a8aaac;}.cls-7{fill:#fdbe15;}.cls-8{fill:#41bfb4;}.cls-9{fill:#b1b1b1;}.cls-10{fill:#a15125;}</style></defs><title>logotype with signature_BIL_4col</title><g class="cls-1"><g id="Layer_1" data-name="Layer 1"><path class="cls-2" d="M10.62,137.69a.66.66,0,0,1,0,.15l0,.11a.09.09,0,0,1,0,.06l-.06,0a.36.36,0,0,1-.18-.09,2.33,2.33,0,0,0-.33-.18,2.48,2.48,0,0,0-.51-.19,2.31,2.31,0,0,0-.69-.09,2,2,0,0,0-.86.18,1.69,1.69,0,0,0-.64.48,2,2,0,0,0-.41.73,3.22,3.22,0,0,0,0,1.91,2.34,2.34,0,0,0,.43.72A1.73,1.73,0,0,0,8,142a2.23,2.23,0,0,0,.83.15,2.48,2.48,0,0,0,.54-.06,2.16,2.16,0,0,0,.52-.2v-1.68H8.49c-.05,0-.08,0-.11-.08a.49.49,0,0,1,0-.24c0-.05,0-.1,0-.14l0-.1s0,0,0-.06h2l.09.06a.15.15,0,0,1,.06.09.36.36,0,0,1,0,.15V142a.4.4,0,0,1,0,.2.3.3,0,0,1-.16.15,2.35,2.35,0,0,1-.34.14,3.38,3.38,0,0,1-.42.13l-.45.09-.44,0a3.21,3.21,0,0,1-1.2-.21,2.39,2.39,0,0,1-.89-.59,2.68,2.68,0,0,1-.56-.92,3.51,3.51,0,0,1-.19-1.2,3.56,3.56,0,0,1,.21-1.25,2.76,2.76,0,0,1,.58-.95,2.85,2.85,0,0,1,.91-.61,3.18,3.18,0,0,1,1.18-.21,3.12,3.12,0,0,1,.62,0,4.6,4.6,0,0,1,.51.14,2,2,0,0,1,.38.17,1,1,0,0,1,.22.15.57.57,0,0,1,.08.13A1.18,1.18,0,0,1,10.62,137.69Z" transform="translate(-5.33 -48.33)"/><path class="cls-2" d="M15.71,140.52a3.28,3.28,0,0,1-.13.91,2.13,2.13,0,0,1-.39.71,1.78,1.78,0,0,1-.64.47,2.29,2.29,0,0,1-.9.17,2.33,2.33,0,0,1-.87-.15,1.57,1.57,0,0,1-.61-.43,1.91,1.91,0,0,1-.37-.69,3.34,3.34,0,0,1,0-1.81,1.93,1.93,0,0,1,.38-.71,1.7,1.7,0,0,1,.65-.47,2.21,2.21,0,0,1,.89-.17,2.3,2.3,0,0,1,.87.15,1.5,1.5,0,0,1,.61.43,1.77,1.77,0,0,1,.37.69A2.79,2.79,0,0,1,15.71,140.52Zm-.77,0a3.11,3.11,0,0,0-.06-.62,1.65,1.65,0,0,0-.2-.51,1,1,0,0,0-.38-.34,1.2,1.2,0,0,0-.59-.13,1.26,1.26,0,0,0-.57.12.89.89,0,0,0-.39.33,1.44,1.44,0,0,0-.23.5,2.48,2.48,0,0,0-.07.63,3,3,0,0,0,.06.62,1.47,1.47,0,0,0,.2.51,1.07,1.07,0,0,0,.38.35,1.34,1.34,0,0,0,.6.12,1.25,1.25,0,0,0,.56-.11,1,1,0,0,0,.39-.33,1.28,1.28,0,0,0,.23-.5A2.56,2.56,0,0,0,14.94,140.57Z" transform="translate(-5.33 -48.33)"/><path class="cls-2" d="M20.05,138.55v0a.09.09,0,0,1,0,0,.06.06,0,0,1,0,0s0,0,0,.07l-1.37,3.82a.56.56,0,0,1,0,.08l-.09.05-.15,0h-.44l-.15,0a.19.19,0,0,1-.09-.05l-.05-.07-1.36-3.82a.22.22,0,0,1,0-.1s0,0,0-.06v0a.14.14,0,0,1,0-.07l.06,0,.11,0h.38l.12,0a.09.09,0,0,1,.06,0,.16.16,0,0,1,0,.07l1.14,3.32,0,.05v-.05l1.12-3.32,0-.07.07,0,.11,0h.37l.1,0a.1.1,0,0,1,.06.05S20.05,138.52,20.05,138.55Z" transform="translate(-5.33 -48.33)"/><path class="cls-2" d="M24.23,140.39a.34.34,0,0,1-.08.25.31.31,0,0,1-.2.07H21.3a2.8,2.8,0,0,0,.06.61,1.17,1.17,0,0,0,.23.46.88.88,0,0,0,.41.29,1.55,1.55,0,0,0,.61.11,2.59,2.59,0,0,0,.51-.05l.39-.1.27-.11.16,0,.06,0a.11.11,0,0,1,0,.05.31.31,0,0,0,0,.08v.24s0,.05,0,.07,0,0,0,.07l0,0-.15.08-.31.11-.45.09a3.1,3.1,0,0,1-.54.05,2.56,2.56,0,0,1-.87-.14,1.72,1.72,0,0,1-.63-.41,2,2,0,0,1-.38-.69,3.37,3.37,0,0,1,0-1.89,2,2,0,0,1,.38-.7,1.68,1.68,0,0,1,.61-.44,2.08,2.08,0,0,1,.8-.16,2,2,0,0,1,.81.16,1.5,1.5,0,0,1,.55.41,1.56,1.56,0,0,1,.31.6,2.55,2.55,0,0,1,.1.74Zm-.74-.22a1.35,1.35,0,0,0-.26-.91,1,1,0,0,0-.81-.33,1.06,1.06,0,0,0-.48.1,1,1,0,0,0-.34.28,1.07,1.07,0,0,0-.22.39,1.5,1.5,0,0,0-.08.47Z" transform="translate(-5.33 -48.33)"/><path class="cls-2" d="M27.71,138.82a.91.91,0,0,1,0,.17s0,.07,0,.1l0,.06,0,0-.09,0-.12,0-.14,0-.18,0a.63.63,0,0,0-.22,0,1.13,1.13,0,0,0-.22.14,1.81,1.81,0,0,0-.25.28c-.09.11-.18.25-.29.41v2.65a.13.13,0,0,1,0,.06l-.06,0-.11,0h-.37l-.11,0a.09.09,0,0,1-.06,0,.13.13,0,0,1,0-.06v-4s0-.05,0-.06a.12.12,0,0,1,.05-.05l.11,0h.32l.11,0a.12.12,0,0,1,.05.05s0,0,0,.06v.58a3.79,3.79,0,0,1,.31-.39,1.9,1.9,0,0,1,.28-.24.72.72,0,0,1,.25-.12,1.27,1.27,0,0,1,.26,0h.13l.16,0,.14,0c.05,0,.08,0,.09.05s0,0,0,0l0,.05v.1A.67.67,0,0,1,27.71,138.82Z" transform="translate(-5.33 -48.33)"/><path class="cls-2" d="M32,142.58a.07.07,0,0,1,0,.06.1.1,0,0,1,0,0l-.12,0h-.36l-.11,0a.09.09,0,0,1-.06,0,.14.14,0,0,1,0-.06v-2.36a2.1,2.1,0,0,0-.05-.55,1,1,0,0,0-.16-.36.67.67,0,0,0-.26-.24.92.92,0,0,0-.38-.08,1,1,0,0,0-.55.2,2.89,2.89,0,0,0-.59.58v2.81a.13.13,0,0,1,0,.06l-.06,0-.11,0h-.36l-.12,0a.09.09,0,0,1-.06,0,.13.13,0,0,1,0-.06v-4s0-.05,0-.06a.12.12,0,0,1,.05-.05l.11,0h.33l.1,0a.12.12,0,0,1,.05.05s0,0,0,.06v.53a2.55,2.55,0,0,1,.68-.56,1.44,1.44,0,0,1,.68-.18,1.52,1.52,0,0,1,.68.14,1.2,1.2,0,0,1,.44.36,1.41,1.41,0,0,1,.25.54,3.12,3.12,0,0,1,.07.73Z" transform="translate(-5.33 -48.33)"/><path class="cls-2" d="M39.33,142.58a.14.14,0,0,1,0,.06.09.09,0,0,1-.06,0l-.11,0h-.36l-.12,0a.09.09,0,0,1-.06,0,.14.14,0,0,1,0-.06v-2.45a2.19,2.19,0,0,0,0-.46,1.18,1.18,0,0,0-.14-.36.82.82,0,0,0-.25-.24.8.8,0,0,0-.36-.08.85.85,0,0,0-.51.2,3.49,3.49,0,0,0-.57.58v2.81a.14.14,0,0,1,0,.06.09.09,0,0,1-.06,0l-.11,0h-.36l-.11,0a.09.09,0,0,1-.06,0,.14.14,0,0,1,0-.06v-2.45a1.66,1.66,0,0,0,0-.46,1.18,1.18,0,0,0-.14-.36.82.82,0,0,0-.25-.24.8.8,0,0,0-.36-.08.85.85,0,0,0-.51.2,3.13,3.13,0,0,0-.56.58v2.81a.14.14,0,0,1,0,.06.09.09,0,0,1-.06,0l-.11,0h-.36l-.12,0a.09.09,0,0,1-.06,0,.13.13,0,0,1,0-.06v-4s0-.05,0-.06l.05-.05.11,0h.33l.1,0a.12.12,0,0,1,0,.05s0,0,0,.06v.53a2.66,2.66,0,0,1,.66-.56,1.33,1.33,0,0,1,.65-.18,1.53,1.53,0,0,1,.45.06,1.2,1.2,0,0,1,.61.42,1.4,1.4,0,0,1,.18.32,3.24,3.24,0,0,1,.38-.37,3.31,3.31,0,0,1,.35-.25,1.54,1.54,0,0,1,.65-.18,1.45,1.45,0,0,1,.65.14,1.14,1.14,0,0,1,.42.36,1.56,1.56,0,0,1,.24.54,3.3,3.3,0,0,1,.07.64Z" transform="translate(-5.33 -48.33)"/><path class="cls-2" d="M44.11,140.39a.28.28,0,0,1-.29.32H41.17a2.27,2.27,0,0,0,.07.61,1.16,1.16,0,0,0,.22.46.88.88,0,0,0,.41.29,1.6,1.6,0,0,0,.62.11,2.59,2.59,0,0,0,.51-.05l.39-.1.27-.11.15,0,.06,0a.07.07,0,0,1,0,.05s0,.05,0,.08,0,.09,0,.14,0,.07,0,.1,0,.05,0,.07a.14.14,0,0,1,0,.07l0,0-.15.08-.31.11-.44.09a3.1,3.1,0,0,1-.54.05,2.56,2.56,0,0,1-.87-.14,1.72,1.72,0,0,1-.63-.41,1.86,1.86,0,0,1-.39-.69,3.38,3.38,0,0,1-.13-1,3,3,0,0,1,.14-.93,2,2,0,0,1,.39-.7,1.6,1.6,0,0,1,.61-.44,2,2,0,0,1,.8-.16,1.93,1.93,0,0,1,.8.16,1.42,1.42,0,0,1,.55.41,1.73,1.73,0,0,1,.32.6,2.94,2.94,0,0,1,.1.74Zm-.75-.22a1.35,1.35,0,0,0-.25-.91,1,1,0,0,0-.81-.33,1,1,0,0,0-.48.1,1,1,0,0,0-.35.28,1.24,1.24,0,0,0-.22.39,1.5,1.5,0,0,0-.08.47Z" transform="translate(-5.33 -48.33)"/><path class="cls-2" d="M48.69,142.58a.13.13,0,0,1,0,.06l-.06,0-.11,0h-.37l-.11,0-.06,0a.13.13,0,0,1,0-.06v-2.36a2,2,0,0,0-.06-.55,1.18,1.18,0,0,0-.15-.36.78.78,0,0,0-.27-.24.89.89,0,0,0-.38-.08,1,1,0,0,0-.55.2,2.64,2.64,0,0,0-.58.58v2.81a.14.14,0,0,1,0,.06.09.09,0,0,1-.06,0l-.11,0h-.36l-.12,0-.06,0a.13.13,0,0,1,0-.06v-4s0-.05,0-.06a.1.1,0,0,1,.06-.05l.1,0h.33l.1,0,.05.05a.08.08,0,0,1,0,.06v.53a2.37,2.37,0,0,1,.67-.56,1.44,1.44,0,0,1,.68-.18,1.52,1.52,0,0,1,.68.14,1.24,1.24,0,0,1,.45.36,1.56,1.56,0,0,1,.24.54,3.12,3.12,0,0,1,.07.73Z" transform="translate(-5.33 -48.33)"/><path class="cls-2" d="M52.05,142.28a1.06,1.06,0,0,1,0,.21.17.17,0,0,1-.06.11.26.26,0,0,1-.1.07.69.69,0,0,1-.17.05,1.08,1.08,0,0,1-.19,0l-.21,0a1.44,1.44,0,0,1-.53-.09.79.79,0,0,1-.37-.25,1.18,1.18,0,0,1-.21-.42,2.68,2.68,0,0,1-.06-.61v-2.35h-.56a.12.12,0,0,1-.11-.07.47.47,0,0,1,0-.23.66.66,0,0,1,0-.15l0-.09a.15.15,0,0,1,0-.06h.63v-1a.13.13,0,0,1,0-.06l.06,0a.21.21,0,0,1,.12,0h.36a.18.18,0,0,1,.11,0l.06,0a.14.14,0,0,1,0,.06v1H52a.1.1,0,0,1,0,.06.94.94,0,0,1,0,.09s0,.09,0,.15a.63.63,0,0,1,0,.23.13.13,0,0,1-.11.07h-1v2.25a1.28,1.28,0,0,0,.12.62.47.47,0,0,0,.44.22l.18,0,.15-.05.1,0,.08,0H52l0,0s0,.06,0,.09S52.05,142.23,52.05,142.28Z" transform="translate(-5.33 -48.33)"/><path class="cls-2" d="M58.83,140.52a2.94,2.94,0,0,1-.13.91,1.94,1.94,0,0,1-.38.71,1.73,1.73,0,0,1-.65.47,2.24,2.24,0,0,1-.89.17,2.33,2.33,0,0,1-.87-.15,1.57,1.57,0,0,1-.61-.43,1.77,1.77,0,0,1-.37-.69,3.14,3.14,0,0,1-.12-.91,2.84,2.84,0,0,1,.13-.9,1.8,1.8,0,0,1,.38-.71,1.67,1.67,0,0,1,.64-.47,2.29,2.29,0,0,1,.9-.17,2.33,2.33,0,0,1,.87.15,1.57,1.57,0,0,1,.61.43,1.77,1.77,0,0,1,.37.69A3.11,3.11,0,0,1,58.83,140.52Zm-.76,0A3.11,3.11,0,0,0,58,140a1.65,1.65,0,0,0-.2-.51,1,1,0,0,0-.38-.34,1.21,1.21,0,0,0-.6-.13,1.19,1.19,0,0,0-.56.12.89.89,0,0,0-.39.33,1.28,1.28,0,0,0-.23.5,2.47,2.47,0,0,0-.08.63,3,3,0,0,0,.06.62,1.48,1.48,0,0,0,.21.51,1,1,0,0,0,.38.35,1.34,1.34,0,0,0,.6.12,1.25,1.25,0,0,0,.56-.11,1,1,0,0,0,.39-.33,1.44,1.44,0,0,0,.23-.5A3.14,3.14,0,0,0,58.07,140.57Z" transform="translate(-5.33 -48.33)"/><path class="cls-2" d="M62.12,136.9a.57.57,0,0,1,0,.14s0,.06,0,.08,0,0,0,0h0a.13.13,0,0,1-.08,0l-.11,0-.16-.05-.21,0a.58.58,0,0,0-.28.06.42.42,0,0,0-.19.16,1,1,0,0,0-.11.3,2.76,2.76,0,0,0,0,.44v.44h1s0,0,0,.06l0,.09a.66.66,0,0,1,0,.15.47.47,0,0,1,0,.23.12.12,0,0,1-.11.07h-.9v3.53a.13.13,0,0,1,0,.06.09.09,0,0,1-.06,0l-.12,0H60.3l-.11,0a.09.09,0,0,1-.06,0,.14.14,0,0,1,0-.06v-3.53h-.57a.1.1,0,0,1-.1-.07.47.47,0,0,1,0-.23.66.66,0,0,1,0-.15s0-.07,0-.09a.09.09,0,0,1,0-.06h.63V138a3,3,0,0,1,.08-.72,1.13,1.13,0,0,1,.24-.49.93.93,0,0,1,.41-.29,1.62,1.62,0,0,1,.57-.09,1.53,1.53,0,0,1,.3,0l.23.06.11.06,0,.07,0,.11Z" transform="translate(-5.33 -48.33)"/><path class="cls-2" d="M12.64,155h-.91c0-.07-.71-1.11-2.12-3.09a27.07,27.07,0,0,1-2.52-4H7q.12,1.56.12,2.67c0,1.45,0,2.91.1,4.38H6.15c.08-1.4.11-2.87.11-4.42s0-2.85-.11-4H7.39a24.77,24.77,0,0,0,2,2.94,20.83,20.83,0,0,1,2.33,3.79h.06c-.07-1-.11-1.94-.11-2.67,0-1.6,0-3-.09-4.06h1.11c-.08,1.14-.11,2.47-.11,4S12.56,153.57,12.64,155Z" transform="translate(-5.33 -48.33)"/><path class="cls-2" d="M20.6,151.71a3.43,3.43,0,0,1-1,2.58,3.09,3.09,0,0,1-2.24.93,2.88,2.88,0,0,1-2.06-.82,3.06,3.06,0,0,1-.86-2.31,3.49,3.49,0,0,1,.95-2.6,3.08,3.08,0,0,1,2.24-.94,2.87,2.87,0,0,1,2.06.83A3.09,3.09,0,0,1,20.6,151.71Zm-1.12.23a3.2,3.2,0,0,0-.51-1.79,1.72,1.72,0,0,0-2.87,0,3,3,0,0,0-.5,1.72,3.24,3.24,0,0,0,.51,1.8,1.62,1.62,0,0,0,1.45.78,1.6,1.6,0,0,0,1.42-.75A3,3,0,0,0,19.48,151.94Z" transform="translate(-5.33 -48.33)"/><path class="cls-2" d="M26,148.83l-.29,1a2.61,2.61,0,0,0-.94-.2,1.5,1.5,0,0,0-1.57,1.16c0,2,0,3.36,0,4.15H22.08c.07-1.37.11-2.42.11-3.18a13.29,13.29,0,0,0-.31-2.93L23,148.7a6.11,6.11,0,0,1,.13,1h.05a2,2,0,0,1,1.63-1A4.09,4.09,0,0,1,26,148.83Z" transform="translate(-5.33 -48.33)"/><path class="cls-2" d="M30.32,154.08l-.08.84a2.89,2.89,0,0,1-1,.18,1.82,1.82,0,0,1-1.59-.59,3.8,3.8,0,0,1-.43-2.11c0-.66,0-1.52,0-2.58-.24,0-.6,0-1.07,0l0-.94c.41,0,.77,0,1.1,0,0-.26,0-.87.06-1.84l1-.1c-.08.9-.11,1.55-.11,1.94q.63,0,1.86-.06l-.05,1c-.78,0-1.4,0-1.87,0,0,.65,0,1.38,0,2.2a3.63,3.63,0,0,0,.28,1.76,1.18,1.18,0,0,0,1,.43A3.08,3.08,0,0,0,30.32,154.08Z" transform="translate(-5.33 -48.33)"/><path class="cls-2" d="M37,155H35.82c.09-1.13.14-2.35.14-3.66a2,2,0,0,0-.39-1.41,1.53,1.53,0,0,0-1.08-.36,2.91,2.91,0,0,0-1.82.66q0,3.53.06,4.77H31.59c0-1.14.06-2.74.06-4.82a36.24,36.24,0,0,0-.19-4.27l1.23-.06c0,1.31,0,2.53,0,3.65h0a3.16,3.16,0,0,1,2.13-.85,2.44,2.44,0,0,1,1.61.48,2.09,2.09,0,0,1,.59,1.69c0,.08,0,.24,0,.48s0,.45,0,.63C37,152.52,37,153.54,37,155Z" transform="translate(-5.33 -48.33)"/><path class="cls-2" d="M47.68,148.83a16.9,16.9,0,0,1-1.1,3,15.53,15.53,0,0,0-1.11,3.1h-.88a10.69,10.69,0,0,0-.65-1.88c-.54-1.34-.92-2.38-1.14-3.14h0c-.21.73-.56,1.78-1.06,3.15A10.23,10.23,0,0,0,41.1,155h-.89a19,19,0,0,0-1.05-3.1,21.82,21.82,0,0,1-1-3h1.15a14.2,14.2,0,0,0,.75,2.46,14.2,14.2,0,0,1,.75,2.46h.07a10.5,10.5,0,0,1,.78-2.55,12.5,12.5,0,0,0,.78-2.37h1.1a15.4,15.4,0,0,0,.81,2.48,17.58,17.58,0,0,1,.8,2.44h.07a12.32,12.32,0,0,1,.7-2.4,11.15,11.15,0,0,0,.7-2.52Z" transform="translate(-5.33 -48.33)"/><path class="cls-2" d="M54.11,151.18c0,.18,0,.43,0,.75l-4.44.07a2.37,2.37,0,0,0,.73,1.58,2.44,2.44,0,0,0,1.77.64A6.87,6.87,0,0,0,54,154l-.11.91a5.15,5.15,0,0,1-1.83.25,3.39,3.39,0,0,1-2.56-.91,3.12,3.12,0,0,1-.88-2.24,3.73,3.73,0,0,1,.8-2.42,2.62,2.62,0,0,1,2.16-1,2.39,2.39,0,0,1,1.9.74A2.76,2.76,0,0,1,54.11,151.18Zm-1.07,0c0-1.21-.51-1.81-1.52-1.81s-1.64.63-1.83,1.88Z" transform="translate(-5.33 -48.33)"/><path class="cls-2" d="M59.71,153.22c0,1.26-.8,1.88-2.41,1.88a9,9,0,0,1-2-.21l.2-.95a5,5,0,0,0,1.82.33c.94,0,1.41-.27,1.41-.8a.72.72,0,0,0-.31-.62,4.69,4.69,0,0,0-1-.52,5.29,5.29,0,0,1-1.33-.69,1.5,1.5,0,0,1-.61-1.2,1.68,1.68,0,0,1,.56-1.27,2.38,2.38,0,0,1,1.69-.52,7.11,7.11,0,0,1,1.78.18l-.2.93a4.42,4.42,0,0,0-1.61-.27c-.83,0-1.24.24-1.24.71a.7.7,0,0,0,.28.59,4.34,4.34,0,0,0,1.08.54,5.36,5.36,0,0,1,1.29.67A1.53,1.53,0,0,1,59.71,153.22Z" transform="translate(-5.33 -48.33)"/><path class="cls-2" d="M64.69,154.08l-.08.84a2.89,2.89,0,0,1-1,.18,1.82,1.82,0,0,1-1.59-.59,3.71,3.71,0,0,1-.43-2.11c0-.66,0-1.52,0-2.58-.25,0-.6,0-1.07,0l0-.94c.41,0,.77,0,1.1,0,0-.26,0-.87.06-1.84l1-.1c-.07.9-.1,1.55-.1,1.94.42,0,1,0,1.85-.06l0,1c-.78,0-1.4,0-1.87,0,0,.65,0,1.38,0,2.2a3.63,3.63,0,0,0,.28,1.76,1.18,1.18,0,0,0,1,.43A3.07,3.07,0,0,0,64.69,154.08Z" transform="translate(-5.33 -48.33)"/><path class="cls-2" d="M74.5,146.56l0,.91q-1.27-.06-2.64-.06c0,.82,0,1.87,0,3.14s0,2.88.06,4.42H70.7c0-1.47.08-2.94.08-4.42,0-1.25,0-2.3,0-3.14-.64,0-1.54,0-2.69.07l0-.92Z" transform="translate(-5.33 -48.33)"/><path class="cls-2" d="M80,151.18c0,.18,0,.43,0,.75l-4.44.07a2.32,2.32,0,0,0,.73,1.58,2.41,2.41,0,0,0,1.76.64,6.77,6.77,0,0,0,1.84-.24l-.11.91a5.08,5.08,0,0,1-1.82.25,3.38,3.38,0,0,1-2.56-.91A3.13,3.13,0,0,1,74.5,152a3.74,3.74,0,0,1,.81-2.42,2.59,2.59,0,0,1,2.16-1,2.35,2.35,0,0,1,1.89.74A2.72,2.72,0,0,1,80,151.18Zm-1.08,0c0-1.21-.5-1.81-1.51-1.81s-1.65.63-1.83,1.88Z" transform="translate(-5.33 -48.33)"/><path class="cls-2" d="M85.41,148.83l-.29,1a2.65,2.65,0,0,0-.94-.2,1.51,1.51,0,0,0-1.58,1.16c0,2,0,3.36,0,4.15H81.5c.07-1.37.1-2.42.1-3.18a13.93,13.93,0,0,0-.3-2.93l1.13-.16a7.08,7.08,0,0,1,.12,1h0a2,2,0,0,1,1.63-1A4.15,4.15,0,0,1,85.41,148.83Z" transform="translate(-5.33 -48.33)"/><path class="cls-2" d="M90.09,148.83l-.29,1a2.6,2.6,0,0,0-.93-.2,1.51,1.51,0,0,0-1.58,1.16c0,2,0,3.36,0,4.15H86.19c.07-1.37.1-2.42.1-3.18a13.93,13.93,0,0,0-.3-2.93l1.13-.16a7.08,7.08,0,0,1,.12,1h.05a2,2,0,0,1,1.63-1A4,4,0,0,1,90.09,148.83Z" transform="translate(-5.33 -48.33)"/><path class="cls-2" d="M92.05,155H90.88c.06-.86.09-1.85.09-2.95a18.47,18.47,0,0,0-.22-3.14l1.29-.17c-.05.9-.08,2-.08,3.31C92,153.05,92,154,92.05,155Zm.27-8.07a.84.84,0,0,1-.21.57.75.75,0,0,1-.6.24.64.64,0,0,1-.51-.21.72.72,0,0,1-.19-.51.84.84,0,0,1,.22-.56.79.79,0,0,1,.61-.24.63.63,0,0,1,.5.21A.75.75,0,0,1,92.32,146.9Z" transform="translate(-5.33 -48.33)"/><path class="cls-2" d="M97.3,154.08l-.08.84a2.89,2.89,0,0,1-1,.18,1.84,1.84,0,0,1-1.59-.59,3.81,3.81,0,0,1-.42-2.11c0-.66,0-1.52,0-2.58-.24,0-.6,0-1.07,0l0-.94c.41,0,.78,0,1.1,0,0-.26,0-.87.06-1.84l1-.1c-.07.9-.11,1.55-.11,1.94q.63,0,1.86-.06l0,1c-.78,0-1.4,0-1.87,0,0,.65,0,1.38,0,2.2a3.6,3.6,0,0,0,.29,1.76,1.15,1.15,0,0,0,1,.43A3,3,0,0,0,97.3,154.08Z" transform="translate(-5.33 -48.33)"/><path class="cls-2" d="M104.41,151.71a3.43,3.43,0,0,1-1,2.58,3.11,3.11,0,0,1-2.24.93,2.86,2.86,0,0,1-2.06-.82,3,3,0,0,1-.86-2.31,3.45,3.45,0,0,1,1-2.6,3.06,3.06,0,0,1,2.24-.94,2.87,2.87,0,0,1,2.06.83A3.09,3.09,0,0,1,104.41,151.71Zm-1.12.23a3.2,3.2,0,0,0-.51-1.79,1.72,1.72,0,0,0-2.87,0,3,3,0,0,0-.5,1.72,3.31,3.31,0,0,0,.5,1.8,1.64,1.64,0,0,0,1.45.78,1.61,1.61,0,0,0,1.43-.75A3,3,0,0,0,103.29,151.94Z" transform="translate(-5.33 -48.33)"/><path class="cls-2" d="M109.8,148.83l-.29,1a2.65,2.65,0,0,0-.94-.2,1.5,1.5,0,0,0-1.57,1.16c0,2,0,3.36,0,4.15h-1.14c.07-1.37.11-2.42.11-3.18a13.92,13.92,0,0,0-.31-2.93l1.13-.16a7.08,7.08,0,0,1,.12,1H107a2,2,0,0,1,1.62-1A4.15,4.15,0,0,1,109.8,148.83Z" transform="translate(-5.33 -48.33)"/><path class="cls-2" d="M111.75,155h-1.16c.06-.86.09-1.85.09-2.95a18.35,18.35,0,0,0-.23-3.14l1.29-.17c0,.9-.08,2-.08,3.31C111.66,153.05,111.7,154,111.75,155Zm.28-8.07a.8.8,0,0,1-.22.57.75.75,0,0,1-.6.24.64.64,0,0,1-.51-.21.76.76,0,0,1-.19-.51.8.8,0,0,1,.23-.56.75.75,0,0,1,.6-.24.63.63,0,0,1,.5.21A.71.71,0,0,1,112,146.9Z" transform="translate(-5.33 -48.33)"/><path class="cls-2" d="M118.76,151.18c0,.18,0,.43,0,.75l-4.44.07a2.32,2.32,0,0,0,.73,1.58,2.41,2.41,0,0,0,1.76.64,6.77,6.77,0,0,0,1.84-.24l-.1.91a5.18,5.18,0,0,1-1.83.25,3.42,3.42,0,0,1-2.57-.91,3.16,3.16,0,0,1-.88-2.24,3.74,3.74,0,0,1,.81-2.42,2.59,2.59,0,0,1,2.16-1,2.35,2.35,0,0,1,1.89.74A2.72,2.72,0,0,1,118.76,151.18Zm-1.08,0c0-1.21-.5-1.81-1.51-1.81s-1.65.63-1.83,1.88Z" transform="translate(-5.33 -48.33)"/><path class="cls-2" d="M124.36,153.22c0,1.26-.81,1.88-2.41,1.88a8.93,8.93,0,0,1-2-.21l.2-.95a4.91,4.91,0,0,0,1.82.33c.94,0,1.41-.27,1.41-.8a.73.73,0,0,0-.32-.62,4.35,4.35,0,0,0-1-.52,5.29,5.29,0,0,1-1.33-.69,1.5,1.5,0,0,1-.61-1.2,1.68,1.68,0,0,1,.56-1.27,2.38,2.38,0,0,1,1.69-.52,7.11,7.11,0,0,1,1.78.18l-.2.93a4.45,4.45,0,0,0-1.61-.27c-.83,0-1.24.24-1.24.71a.72.72,0,0,0,.27.59,4.66,4.66,0,0,0,1.09.54,5.36,5.36,0,0,1,1.29.67A1.53,1.53,0,0,1,124.36,153.22Z" transform="translate(-5.33 -48.33)"/><path class="cls-2" d="M143.78,150.13a.66.66,0,0,1,0,.15.18.18,0,0,1,0,.11.09.09,0,0,1,0,.06l-.06,0a.41.41,0,0,1-.18-.09l-.33-.18a3.51,3.51,0,0,0-.5-.19,2.45,2.45,0,0,0-.7-.08,2,2,0,0,0-.86.17,1.93,1.93,0,0,0-.64.48,2.21,2.21,0,0,0-.41.74,3,3,0,0,0-.14.92,2.72,2.72,0,0,0,.16,1,2,2,0,0,0,.42.72,1.73,1.73,0,0,0,.65.45,2.27,2.27,0,0,0,.83.15,2.64,2.64,0,0,0,.55-.06,1.87,1.87,0,0,0,.51-.2V152.6h-1.34a.14.14,0,0,1-.12-.08.63.63,0,0,1,0-.23c0-.06,0-.11,0-.15l0-.1s0,0,.05,0a.08.08,0,0,1,.07,0h1.83a.16.16,0,0,1,.1,0,.19.19,0,0,1,.09,0,.17.17,0,0,1,.06.1.32.32,0,0,1,0,.14v2.21a.65.65,0,0,1,0,.2.52.52,0,0,1-.17.15l-.34.14-.42.13-.45.08a3.24,3.24,0,0,1-.44,0,3.47,3.47,0,0,1-1.2-.2,2.41,2.41,0,0,1-.89-.6,2.58,2.58,0,0,1-.56-.92,3.73,3.73,0,0,1-.19-1.2,3.51,3.51,0,0,1,.21-1.24,2.68,2.68,0,0,1,.59-1,2.7,2.7,0,0,1,.9-.61,3.22,3.22,0,0,1,1.18-.21,3,3,0,0,1,.62.06,3.15,3.15,0,0,1,.51.13,2.06,2.06,0,0,1,.39.17,1.16,1.16,0,0,1,.21.15.39.39,0,0,1,.08.14A1.06,1.06,0,0,1,143.78,150.13Z" transform="translate(-5.33 -48.33)"/><path class="cls-2" d="M148.87,153a2.92,2.92,0,0,1-.13.9,2,2,0,0,1-.39.71,1.78,1.78,0,0,1-.64.47,2.29,2.29,0,0,1-.9.17,2.24,2.24,0,0,1-.86-.15,1.54,1.54,0,0,1-.62-.43A2,2,0,0,1,145,154a3.37,3.37,0,0,1,0-1.82,1.88,1.88,0,0,1,.39-.71A1.69,1.69,0,0,1,146,151a2.66,2.66,0,0,1,1.76,0,1.72,1.72,0,0,1,.62.43,2.07,2.07,0,0,1,.37.69A3.18,3.18,0,0,1,148.87,153Zm-.77,0a3,3,0,0,0-.06-.61,1.3,1.3,0,0,0-.2-.51,1,1,0,0,0-.38-.35,1.32,1.32,0,0,0-.59-.13,1.26,1.26,0,0,0-.57.12,1,1,0,0,0-.39.33,1.53,1.53,0,0,0-.23.5,2.62,2.62,0,0,0-.07.64,3.11,3.11,0,0,0,.06.62,1.65,1.65,0,0,0,.2.51,1.14,1.14,0,0,0,.38.34,1.33,1.33,0,0,0,.6.13,1.22,1.22,0,0,0,.56-.12,1.16,1.16,0,0,0,.4-.33,1.43,1.43,0,0,0,.22-.5A2.51,2.51,0,0,0,148.1,153Z" transform="translate(-5.33 -48.33)"/><path class="cls-2" d="M153.4,155s0,0,0,.06a.09.09,0,0,1-.06,0,.29.29,0,0,1-.1,0h-.33s-.08,0-.1,0a.09.09,0,0,1-.06,0,.35.35,0,0,1,0-.06v-.53a2.35,2.35,0,0,1-.68.55,1.41,1.41,0,0,1-.68.18,1.48,1.48,0,0,1-.67-.14,1.16,1.16,0,0,1-.45-.36,1.48,1.48,0,0,1-.24-.54,3.1,3.1,0,0,1-.08-.74V151a.08.08,0,0,1,0-.06s0,0,.06-.05l.12,0h.35l.12,0s.05,0,.06.05a.08.08,0,0,1,0,.06v2.34a2.27,2.27,0,0,0,0,.57,1,1,0,0,0,.15.36.67.67,0,0,0,.27.23.75.75,0,0,0,.37.08,1,1,0,0,0,.56-.19,3.5,3.5,0,0,0,.58-.58V151s0-.05,0-.06,0,0,.06-.05l.11,0h.36l.11,0s.05,0,.06.05,0,0,0,.06Z" transform="translate(-5.33 -48.33)"/><path class="cls-2" d="M158.07,151s0,0,0,0v0s0,0,0,.05a.13.13,0,0,1,0,.06L156.66,155a.56.56,0,0,1,0,.08.19.19,0,0,1-.09,0l-.14,0h-.45a.57.57,0,0,1-.15,0l-.09,0a.3.3,0,0,1,0-.08l-1.37-3.82,0-.1a.13.13,0,0,1,0-.06,0,0,0,0,1,0,0,.11.11,0,0,1,0-.06.1.1,0,0,1,.06-.05l.11,0h.38l.12,0,.07,0a.25.25,0,0,0,0,.07l1.13,3.32,0,.05v-.05l1.12-3.32a.25.25,0,0,1,0-.07l.06,0,.12,0h.36a.29.29,0,0,1,.11,0,.1.1,0,0,1,.05,0A.11.11,0,0,1,158.07,151Z" transform="translate(-5.33 -48.33)"/><path class="cls-2" d="M162.25,152.83a.3.3,0,0,1-.09.25.32.32,0,0,1-.2.08h-2.65a2.25,2.25,0,0,0,.07.6,1.16,1.16,0,0,0,.22.46,1,1,0,0,0,.41.3,1.83,1.83,0,0,0,.62.1,2.59,2.59,0,0,0,.51-.05,2.28,2.28,0,0,0,.38-.1l.27-.11a.58.58,0,0,1,.17-.05l0,0a.1.1,0,0,1,0,0s0,.05,0,.08,0,.09,0,.14,0,.07,0,.1a.19.19,0,0,1,0,.08.14.14,0,0,1,0,.06l0,0-.15.08a2.14,2.14,0,0,1-.31.11,3.83,3.83,0,0,1-.45.1,4.41,4.41,0,0,1-.54,0,2.5,2.5,0,0,1-.86-.14,1.6,1.6,0,0,1-.63-.41,1.78,1.78,0,0,1-.39-.69,3.36,3.36,0,0,1-.13-.95,3,3,0,0,1,.14-.94,2.24,2.24,0,0,1,.38-.7,1.76,1.76,0,0,1,.61-.44,2.09,2.09,0,0,1,.81-.15,1.94,1.94,0,0,1,.8.15,1.53,1.53,0,0,1,.55.41,1.56,1.56,0,0,1,.31.6,2.55,2.55,0,0,1,.11.74Zm-.75-.21a1.38,1.38,0,0,0-.25-.92,1,1,0,0,0-.81-.33,1,1,0,0,0-.48.11.94.94,0,0,0-.35.27,1.47,1.47,0,0,0-.22.39,1.51,1.51,0,0,0-.08.48Z" transform="translate(-5.33 -48.33)"/><path class="cls-2" d="M165.72,151.26v.17a.87.87,0,0,1,0,.1.16.16,0,0,1,0,.06l-.06,0-.09,0-.12,0-.14,0-.18,0a.54.54,0,0,0-.21,0,.75.75,0,0,0-.23.15,1.69,1.69,0,0,0-.25.27c-.08.11-.18.25-.28.42V155a.08.08,0,0,1,0,.06.09.09,0,0,1-.06,0,.29.29,0,0,1-.11,0h-.36a.35.35,0,0,1-.12,0,.09.09,0,0,1-.06,0s0,0,0-.06v-4s0-.05,0-.06,0,0,.06-.05l.1,0h.33l.1,0,.05.05s0,0,0,.06v.58a3.79,3.79,0,0,1,.31-.39,1.9,1.9,0,0,1,.28-.24.76.76,0,0,1,.26-.12,1.07,1.07,0,0,1,.25,0h.14l.15,0,.15,0,.09,0s0,0,0,.05,0,0,0,0,0,.05,0,.09Z" transform="translate(-5.33 -48.33)"/><path class="cls-2" d="M170,155a.08.08,0,0,1,0,.06.09.09,0,0,1-.06,0,.35.35,0,0,1-.11,0h-.36a.35.35,0,0,1-.12,0l-.06,0s0,0,0-.06v-2.35a2.12,2.12,0,0,0-.06-.56,1,1,0,0,0-.15-.36.67.67,0,0,0-.27-.23.76.76,0,0,0-.38-.08.94.94,0,0,0-.55.19,3.16,3.16,0,0,0-.58.58V155a.08.08,0,0,1,0,.06.09.09,0,0,1-.06,0,.29.29,0,0,1-.11,0h-.36a.35.35,0,0,1-.12,0,.1.1,0,0,1,0,0s0,0,0-.06v-4s0-.05,0-.06,0,0,.06-.05l.1,0h.33l.1,0,.05.05a.08.08,0,0,1,0,.06v.53a2.55,2.55,0,0,1,.67-.56,1.59,1.59,0,0,1,.68-.17,1.53,1.53,0,0,1,.68.13,1.17,1.17,0,0,1,.45.37,1.51,1.51,0,0,1,.24.53,3.16,3.16,0,0,1,.08.74Z" transform="translate(-5.33 -48.33)"/><path class="cls-2" d="M174.8,152.83a.3.3,0,0,1-.08.25.32.32,0,0,1-.2.08h-2.65a2.25,2.25,0,0,0,.07.6,1,1,0,0,0,.22.46,1,1,0,0,0,.41.3,1.81,1.81,0,0,0,.61.1,2.7,2.7,0,0,0,.52-.05,3,3,0,0,0,.38-.1l.27-.11.16-.05.06,0a.1.1,0,0,1,0,0,.19.19,0,0,1,0,.08v.24a.19.19,0,0,1,0,.08.14.14,0,0,1,0,.06l0,0-.15.08a2.14,2.14,0,0,1-.31.11,4.13,4.13,0,0,1-.44.1,4.74,4.74,0,0,1-.55,0,2.46,2.46,0,0,1-.86-.14,1.6,1.6,0,0,1-.63-.41,1.78,1.78,0,0,1-.39-.69,3.36,3.36,0,0,1-.13-.95,3,3,0,0,1,.14-.94,2.24,2.24,0,0,1,.38-.7,1.76,1.76,0,0,1,.61-.44,2.09,2.09,0,0,1,.81-.15,1.94,1.94,0,0,1,.8.15,1.53,1.53,0,0,1,.55.41,1.56,1.56,0,0,1,.31.6,2.55,2.55,0,0,1,.1.74Zm-.74-.21a1.38,1.38,0,0,0-.26-.92,1,1,0,0,0-.8-.33,1,1,0,0,0-.48.11.94.94,0,0,0-.35.27,1.24,1.24,0,0,0-.22.39,1.51,1.51,0,0,0-.08.48Z" transform="translate(-5.33 -48.33)"/><path class="cls-2" d="M181.9,155a.08.08,0,0,1,0,.06.09.09,0,0,1-.06,0,.29.29,0,0,1-.11,0h-.36a.35.35,0,0,1-.12,0,.09.09,0,0,1-.06,0,.08.08,0,0,1,0-.06v-2.44a2.29,2.29,0,0,0,0-.47,1.18,1.18,0,0,0-.14-.36.64.64,0,0,0-.26-.23.67.67,0,0,0-.35-.08.83.83,0,0,0-.51.19,3.49,3.49,0,0,0-.57.58V155a.08.08,0,0,1,0,.06.09.09,0,0,1-.06,0,.35.35,0,0,1-.11,0h-.36s-.09,0-.11,0a.09.09,0,0,1-.06,0,.08.08,0,0,1,0-.06v-2.44a1.74,1.74,0,0,0,0-.47,1.18,1.18,0,0,0-.14-.36.68.68,0,0,0-.61-.31.83.83,0,0,0-.51.19,3.13,3.13,0,0,0-.56.58V155a.08.08,0,0,1,0,.06.09.09,0,0,1-.06,0,.35.35,0,0,1-.11,0h-.36a.35.35,0,0,1-.12,0,.09.09,0,0,1-.06,0s0,0,0-.06v-4s0-.05,0-.06,0,0,.05-.05l.11,0h.33l.1,0,.05.05s0,0,0,.06v.53a2.89,2.89,0,0,1,.66-.56,1.43,1.43,0,0,1,.65-.17,1.58,1.58,0,0,1,.45.06,1,1,0,0,1,.35.16,1,1,0,0,1,.26.25,1.4,1.4,0,0,1,.18.32,4.32,4.32,0,0,1,.38-.37,2.19,2.19,0,0,1,.35-.24,1.25,1.25,0,0,1,.32-.14,1.22,1.22,0,0,1,.32,0,1.47,1.47,0,0,1,.66.13,1.18,1.18,0,0,1,.43.37,1.7,1.7,0,0,1,.23.53,3.41,3.41,0,0,1,.07.65Z" transform="translate(-5.33 -48.33)"/><path class="cls-2" d="M186.68,152.83a.3.3,0,0,1-.09.25.32.32,0,0,1-.2.08h-2.65a2.77,2.77,0,0,0,.06.6,1.33,1.33,0,0,0,.23.46,1,1,0,0,0,.41.3,1.81,1.81,0,0,0,.61.1,2.62,2.62,0,0,0,.52-.05,2.74,2.74,0,0,0,.39-.1l.27-.11.15-.05.06,0a.1.1,0,0,1,0,0s0,.05,0,.08v.24a.19.19,0,0,1,0,.08.14.14,0,0,1,0,.06l0,0-.15.08a2.14,2.14,0,0,1-.31.11,3.83,3.83,0,0,1-.45.1,4.39,4.39,0,0,1-.53,0,2.56,2.56,0,0,1-.87-.14,1.6,1.6,0,0,1-.63-.41,1.78,1.78,0,0,1-.39-.69A3.36,3.36,0,0,1,183,153a3,3,0,0,1,.14-.94,2.08,2.08,0,0,1,.39-.7,1.6,1.6,0,0,1,.61-.44,2,2,0,0,1,.8-.15,1.94,1.94,0,0,1,.8.15,1.53,1.53,0,0,1,.55.41,1.73,1.73,0,0,1,.32.6,2.94,2.94,0,0,1,.1.74Zm-.75-.21a1.33,1.33,0,0,0-.26-.92,1,1,0,0,0-.8-.33,1.1,1.1,0,0,0-.49.11,1,1,0,0,0-.34.27,1.24,1.24,0,0,0-.22.39,1.51,1.51,0,0,0-.08.48Z" transform="translate(-5.33 -48.33)"/><path class="cls-2" d="M191.26,155s0,0,0,.06a.1.1,0,0,1-.05,0,.35.35,0,0,1-.11,0h-.37a.35.35,0,0,1-.11,0l-.06,0s0,0,0-.06v-2.35a2.12,2.12,0,0,0-.06-.56,1.18,1.18,0,0,0-.15-.36.67.67,0,0,0-.27-.23.79.79,0,0,0-.38-.08.94.94,0,0,0-.55.19,2.88,2.88,0,0,0-.58.58V155a.08.08,0,0,1,0,.06.09.09,0,0,1-.06,0,.35.35,0,0,1-.11,0H188a.35.35,0,0,1-.12,0,.09.09,0,0,1-.06,0s0,0,0-.06v-4s0-.05,0-.06,0,0,.05-.05l.11,0h.33l.1,0s0,0,0,.05,0,0,0,.06v.53a2.75,2.75,0,0,1,.68-.56,1.55,1.55,0,0,1,.68-.17,1.53,1.53,0,0,1,.68.13,1.14,1.14,0,0,1,.44.37,1.37,1.37,0,0,1,.25.53,3.21,3.21,0,0,1,.07.74Z" transform="translate(-5.33 -48.33)"/><path class="cls-2" d="M194.61,154.73a1.15,1.15,0,0,1,0,.2s0,.09-.06.11a.26.26,0,0,1-.1.07l-.17,0-.19,0h-.21a1.69,1.69,0,0,1-.53-.08,1,1,0,0,1-.37-.25,1.15,1.15,0,0,1-.21-.43,2.64,2.64,0,0,1-.06-.6v-2.36h-.57a.1.1,0,0,1-.1-.07.43.43,0,0,1,0-.23.57.57,0,0,1,0-.14l0-.1,0,0,.07,0h.56v-.95s0-.05,0-.06a.1.1,0,0,1,.06-.05l.12,0h.36l.11,0a.1.1,0,0,1,.06.05s0,0,0,.06v.95h1l.06,0a.12.12,0,0,1,.05,0l0,.1v.14a.6.6,0,0,1,0,.23.13.13,0,0,1-.11.07h-1v2.25a1.29,1.29,0,0,0,.13.63.47.47,0,0,0,.44.21l.18,0,.15,0,.1-.05.08,0h.05l0,0a.31.31,0,0,0,0,.08Z" transform="translate(-5.33 -48.33)"/><path class="cls-2" d="M201.11,155a.08.08,0,0,1,0,.06.12.12,0,0,1-.05,0l-.1,0h-.31l-.1,0a.1.1,0,0,1-.06,0,.08.08,0,0,1,0-.06v-.53a2.7,2.7,0,0,1-.66.54,1.61,1.61,0,0,1-.75.19,1.57,1.57,0,0,1-.75-.17,1.44,1.44,0,0,1-.51-.47,2,2,0,0,1-.29-.69,3.71,3.71,0,0,1-.08-.83,3.42,3.42,0,0,1,.11-.94,1.94,1.94,0,0,1,.33-.71,1.38,1.38,0,0,1,.54-.45,1.65,1.65,0,0,1,.75-.16,1.41,1.41,0,0,1,.65.15,2.77,2.77,0,0,1,.58.45v-2.33s0,0,0-.06a.1.1,0,0,1,.06,0l.11,0h.36l.12,0,.06,0a.08.08,0,0,1,0,.06Zm-.74-2.83a2.71,2.71,0,0,0-.58-.56,1,1,0,0,0-.59-.2.85.85,0,0,0-.48.14,1,1,0,0,0-.32.35,1.55,1.55,0,0,0-.17.5,2.6,2.6,0,0,0-.06.56,3.81,3.81,0,0,0,.05.59,1.59,1.59,0,0,0,.16.52,1,1,0,0,0,.31.36.83.83,0,0,0,.48.14,1,1,0,0,0,.29,0,.87.87,0,0,0,.27-.14,1.58,1.58,0,0,0,.3-.24,3.17,3.17,0,0,0,.34-.37Z" transform="translate(-5.33 -48.33)"/><path class="cls-2" d="M205.9,152.83a.3.3,0,0,1-.08.25.32.32,0,0,1-.2.08H203a2.77,2.77,0,0,0,.06.6,1.17,1.17,0,0,0,.23.46,1,1,0,0,0,.41.3,1.77,1.77,0,0,0,.61.1,2.44,2.44,0,0,0,.51-.05,2.18,2.18,0,0,0,.39-.1l.28-.11.15-.05.06,0,0,0s0,.05,0,.08,0,.09,0,.14,0,.07,0,.1,0,.06,0,.08a.14.14,0,0,1,0,.06l0,0-.15.08a2.14,2.14,0,0,1-.31.11,3.83,3.83,0,0,1-.45.1,4.41,4.41,0,0,1-.54,0,2.56,2.56,0,0,1-.87-.14,1.64,1.64,0,0,1-.62-.41,1.78,1.78,0,0,1-.39-.69,3.36,3.36,0,0,1-.13-.95,3,3,0,0,1,.14-.94,2.24,2.24,0,0,1,.38-.7,1.76,1.76,0,0,1,.61-.44,2.07,2.07,0,0,1,.8-.15,2,2,0,0,1,.81.15,1.53,1.53,0,0,1,.55.41,1.56,1.56,0,0,1,.31.6,2.55,2.55,0,0,1,.1.74Zm-.74-.21a1.33,1.33,0,0,0-.26-.92,1,1,0,0,0-.8-.33,1,1,0,0,0-.48.11.94.94,0,0,0-.35.27,1.24,1.24,0,0,0-.22.39,1.51,1.51,0,0,0-.08.48Z" transform="translate(-5.33 -48.33)"/><path class="cls-2" d="M209.55,153.93a1.26,1.26,0,0,1-.11.55,1.13,1.13,0,0,1-.32.4,1.35,1.35,0,0,1-.51.25,2.11,2.11,0,0,1-.64.09,2.6,2.6,0,0,1-.4,0l-.35-.09A1.07,1.07,0,0,1,207,155a.44.44,0,0,1-.16-.1.24.24,0,0,1-.07-.12.72.72,0,0,1,0-.22v-.15a.94.94,0,0,1,0-.09l0-.05.06,0a.37.37,0,0,1,.15.06l.23.14.33.13a1.53,1.53,0,0,0,.45.06,1.76,1.76,0,0,0,.34,0,.89.89,0,0,0,.26-.12.58.58,0,0,0,.18-.2.83.83,0,0,0,.06-.29.52.52,0,0,0-.09-.28.93.93,0,0,0-.23-.21,2.53,2.53,0,0,0-.33-.16l-.36-.14-.37-.17a2,2,0,0,1-.33-.24,1.14,1.14,0,0,1-.23-.33,1.08,1.08,0,0,1-.09-.46,1,1,0,0,1,.1-.45.94.94,0,0,1,.27-.38,1.47,1.47,0,0,1,.46-.27,2.06,2.06,0,0,1,.64-.09l.32,0a1.77,1.77,0,0,1,.29.07l.23.09.13.08.07.06s0,0,0,.06,0,0,0,.09a.41.41,0,0,1,0,.12.53.53,0,0,1,0,.13.2.2,0,0,1,0,.09.1.1,0,0,1,0,0l-.05,0-.11-.05-.2-.11-.29-.1a1.32,1.32,0,0,0-.37,0,1.15,1.15,0,0,0-.33,0,.71.71,0,0,0-.23.12.43.43,0,0,0-.14.19.59.59,0,0,0-.05.23.46.46,0,0,0,.09.29.93.93,0,0,0,.23.21,2.53,2.53,0,0,0,.33.16l.37.15.38.17a1.5,1.5,0,0,1,.33.23,1.09,1.09,0,0,1,.23.32A1.17,1.17,0,0,1,209.55,153.93Z" transform="translate(-5.33 -48.33)"/><path class="cls-2" d="M74.5,158.72l0,.91c-.85,0-1.73-.07-2.64-.07,0,.83,0,1.88,0,3.15s0,2.87.06,4.42H70.7c0-1.47.08-2.95.08-4.42,0-1.26,0-2.3,0-3.15-.64,0-1.53,0-2.69.08l0-.92Z" transform="translate(-5.33 -48.33)"/><path class="cls-2" d="M80,163.33c0,.18,0,.43,0,.75l-4.44.08a2.34,2.34,0,0,0,.73,1.58,2.45,2.45,0,0,0,1.76.64,6.77,6.77,0,0,0,1.84-.24l-.11.91a5.32,5.32,0,0,1-1.82.25,3.38,3.38,0,0,1-2.56-.92,3.09,3.09,0,0,1-.89-2.23,3.79,3.79,0,0,1,.81-2.43,2.58,2.58,0,0,1,2.16-1,2.38,2.38,0,0,1,1.89.73A2.72,2.72,0,0,1,80,163.33Zm-1.08,0c0-1.21-.5-1.82-1.51-1.82s-1.65.63-1.83,1.89Z" transform="translate(-5.33 -48.33)"/><path class="cls-2" d="M85.4,161l-.29,1a2.37,2.37,0,0,0-.93-.2A1.51,1.51,0,0,0,82.6,163c0,2,0,3.37,0,4.16H81.5c.07-1.37.1-2.43.1-3.18a13.93,13.93,0,0,0-.3-2.93l1.13-.17a7.28,7.28,0,0,1,.12,1h0a2,2,0,0,1,1.63-1A4,4,0,0,1,85.4,161Z" transform="translate(-5.33 -48.33)"/><path class="cls-2" d="M90.09,161l-.29,1a2.37,2.37,0,0,0-.93-.2A1.51,1.51,0,0,0,87.29,163c0,2,0,3.37,0,4.16H86.19c.07-1.37.1-2.43.1-3.18A13.93,13.93,0,0,0,86,161l1.13-.17a7.28,7.28,0,0,1,.12,1h.05a2,2,0,0,1,1.63-1A4,4,0,0,1,90.09,161Z" transform="translate(-5.33 -48.33)"/><path class="cls-2" d="M92.05,167.13H90.88c.06-.87.09-1.85.09-3a18.35,18.35,0,0,0-.22-3.13l1.29-.17c-.05.9-.08,2-.08,3.3C92,165.21,92,166.19,92.05,167.13Zm.27-8.08a.84.84,0,0,1-.21.57.73.73,0,0,1-.6.25.67.67,0,0,1-.52-.21.76.76,0,0,1-.18-.51.78.78,0,0,1,.22-.56.79.79,0,0,1,.61-.24.63.63,0,0,1,.5.21A.72.72,0,0,1,92.32,159.05Z" transform="translate(-5.33 -48.33)"/><path class="cls-2" d="M97.3,166.23l-.08.84a2.68,2.68,0,0,1-1,.19,1.87,1.87,0,0,1-1.59-.59,3.85,3.85,0,0,1-.42-2.12c0-.65,0-1.51,0-2.57-.24,0-.6,0-1.07,0l0-.94c.41,0,.78,0,1.1,0,0-.26,0-.87.07-1.84l1-.11c-.07.91-.11,1.56-.11,2,.42,0,1,0,1.86-.07l0,1c-.77,0-1.39,0-1.86,0,0,.65,0,1.38,0,2.19a3.55,3.55,0,0,0,.29,1.76,1.13,1.13,0,0,0,1,.43A3,3,0,0,0,97.3,166.23Z" transform="translate(-5.33 -48.33)"/><path class="cls-2" d="M104.4,163.87a3.45,3.45,0,0,1-.94,2.58,3.11,3.11,0,0,1-2.24.93,2.9,2.9,0,0,1-2.06-.82,3,3,0,0,1-.86-2.32,3.47,3.47,0,0,1,1-2.6,3.09,3.09,0,0,1,2.24-.93,2.85,2.85,0,0,1,2.06.83A3.09,3.09,0,0,1,104.4,163.87Zm-1.11.23a3.24,3.24,0,0,0-.51-1.8,1.74,1.74,0,0,0-2.87,0,3,3,0,0,0-.5,1.73,3.28,3.28,0,0,0,.5,1.79,1.74,1.74,0,0,0,2.88,0A3,3,0,0,0,103.29,164.1Z" transform="translate(-5.33 -48.33)"/><path class="cls-2" d="M107.07,167.13H105.9c.06-.87.09-1.85.09-3a18.23,18.23,0,0,0-.23-3.13l1.29-.17c0,.9-.07,2-.07,3.3C107,165.21,107,166.19,107.07,167.13Zm.27-8.08a.8.8,0,0,1-.22.57.73.73,0,0,1-.6.25.64.64,0,0,1-.51-.21.76.76,0,0,1-.18-.51.81.81,0,0,1,.21-.56.79.79,0,0,1,.61-.24.63.63,0,0,1,.5.21A.69.69,0,0,1,107.34,159.05Z" transform="translate(-5.33 -48.33)"/><path class="cls-2" d="M112.68,161l-.29,1a2.45,2.45,0,0,0-.94-.2,1.5,1.5,0,0,0-1.57,1.15c0,2,0,3.37,0,4.16h-1.14c.07-1.37.1-2.43.1-3.18a13.93,13.93,0,0,0-.3-2.93l1.13-.17a8,8,0,0,1,.13,1h0a2,2,0,0,1,1.62-1A4.15,4.15,0,0,1,112.68,161Z" transform="translate(-5.33 -48.33)"/><path class="cls-2" d="M118.76,163.33c0,.18,0,.43,0,.75l-4.44.08a2.34,2.34,0,0,0,.73,1.58,2.45,2.45,0,0,0,1.76.64,6.77,6.77,0,0,0,1.84-.24l-.11.91a5.32,5.32,0,0,1-1.82.25,3.42,3.42,0,0,1-2.57-.92,3.12,3.12,0,0,1-.88-2.23,3.79,3.79,0,0,1,.81-2.43,2.58,2.58,0,0,1,2.16-1,2.38,2.38,0,0,1,1.89.73A2.72,2.72,0,0,1,118.76,163.33Zm-1.08,0c0-1.21-.5-1.82-1.51-1.82s-1.65.63-1.83,1.89Z" transform="translate(-5.33 -48.33)"/><path class="cls-2" d="M124.35,165.37q0,1.89-2.4,1.89a8.87,8.87,0,0,1-2-.21l.2-1a5.12,5.12,0,0,0,1.82.32c.94,0,1.41-.27,1.41-.8a.74.74,0,0,0-.32-.62,5.11,5.11,0,0,0-1-.51,5,5,0,0,1-1.33-.7,1.49,1.49,0,0,1-.61-1.2,1.7,1.7,0,0,1,.55-1.26,2.39,2.39,0,0,1,1.69-.53,6.65,6.65,0,0,1,1.79.19l-.2.93a4.26,4.26,0,0,0-1.62-.28c-.82,0-1.24.24-1.24.72a.72.72,0,0,0,.28.58,4.66,4.66,0,0,0,1.09.54,5.36,5.36,0,0,1,1.29.67A1.52,1.52,0,0,1,124.35,165.37Z" transform="translate(-5.33 -48.33)"/><path class="cls-2" d="M134.23,167.12l-1,0a2.74,2.74,0,0,1-.06-.59h-.07a2.6,2.6,0,0,1-2,.74,2.42,2.42,0,0,1-2-.89,3.32,3.32,0,0,1-.72-2.15,3.85,3.85,0,0,1,.81-2.46,2.7,2.7,0,0,1,2.27-1,2.17,2.17,0,0,1,1.5.43h.05q0-1.6-.09-3.15l1.23,0c-.09,1.09-.13,2.52-.13,4.29S134.14,165.7,134.23,167.12Zm-1-1.27c0-1.34,0-2.63-.11-3.87a2,2,0,0,0-1.31-.44,1.92,1.92,0,0,0-1.63.73,3,3,0,0,0-.54,1.83,2.66,2.66,0,0,0,.51,1.65,1.69,1.69,0,0,0,1.43.67A2.11,2.11,0,0,0,133.19,165.85Z" transform="translate(-5.33 -48.33)"/><path class="cls-2" d="M141.38,167.12l-1,0a2.56,2.56,0,0,1-.09-.6h-.06a3.15,3.15,0,0,1-2.09.73,2.14,2.14,0,0,1-1.62-.54,3.31,3.31,0,0,1-.51-2.18c0-.15,0-.38,0-.69s0-.51,0-.62c0-.64,0-1.38-.11-2.24l1.2,0c0,.83-.08,1.54-.08,2.13a8.51,8.51,0,0,0,.26,2.65,1.15,1.15,0,0,0,1.18.62,2.76,2.76,0,0,0,1.71-.52c0-2.4,0-4-.07-4.84l1.16,0c0,.81,0,1.93,0,3.35C141.24,165.25,141.29,166.18,141.38,167.12Z" transform="translate(-5.33 -48.33)"/><path class="cls-2" d="M152.74,167.13h-.91c0-.08-.7-1.11-2.11-3.1a27.68,27.68,0,0,1-2.53-3.95h-.06c.07,1,.11,1.93.11,2.67,0,1.44,0,2.9.1,4.38h-1.09c.08-1.4.11-2.88.11-4.42s0-2.85-.11-4h1.24a24.77,24.77,0,0,0,1.95,2.94,20.83,20.83,0,0,1,2.33,3.79h.06c-.07-1-.11-1.95-.11-2.68q0-2.39-.09-4.05h1.11c-.07,1.14-.11,2.47-.11,4S152.67,165.73,152.74,167.13Z" transform="translate(-5.33 -48.33)"/><path class="cls-2" d="M160.7,163.87a3.46,3.46,0,0,1-.95,2.58,3.09,3.09,0,0,1-2.23.93,2.94,2.94,0,0,1-2.07-.82,3.07,3.07,0,0,1-.86-2.32,3.51,3.51,0,0,1,.95-2.6,3.11,3.11,0,0,1,2.24-.93,2.83,2.83,0,0,1,2.06.83A3.09,3.09,0,0,1,160.7,163.87Zm-1.12.23a3.23,3.23,0,0,0-.5-1.8,1.74,1.74,0,0,0-2.88,0,3.06,3.06,0,0,0-.5,1.73,3.2,3.2,0,0,0,.51,1.79,1.74,1.74,0,0,0,2.88,0A3,3,0,0,0,159.58,164.1Z" transform="translate(-5.33 -48.33)"/><path class="cls-2" d="M166.09,161l-.29,1a2.37,2.37,0,0,0-.93-.2,1.51,1.51,0,0,0-1.58,1.15c0,2,0,3.37,0,4.16h-1.14c.06-1.37.1-2.43.1-3.18A13.93,13.93,0,0,0,162,161l1.13-.17a7.28,7.28,0,0,1,.12,1h0a2,2,0,0,1,1.63-1A4,4,0,0,1,166.09,161Z" transform="translate(-5.33 -48.33)"/><path class="cls-2" d="M172.45,167.12l-1,0a2.76,2.76,0,0,1-.05-.59h-.08a2.6,2.6,0,0,1-2,.74,2.39,2.39,0,0,1-1.95-.89,3.28,3.28,0,0,1-.73-2.15,3.9,3.9,0,0,1,.8-2.46,2.73,2.73,0,0,1,2.28-1,2.17,2.17,0,0,1,1.5.43h.05q0-1.6-.09-3.15l1.22,0q-.12,1.63-.12,4.29C172.31,164.09,172.36,165.7,172.45,167.12Zm-1-1.27c0-1.34,0-2.63-.11-3.87a2,2,0,0,0-1.31-.44,1.92,1.92,0,0,0-1.63.73,3,3,0,0,0-.54,1.83,2.66,2.66,0,0,0,.51,1.65,1.69,1.69,0,0,0,1.43.67A2.11,2.11,0,0,0,171.41,165.85Z" transform="translate(-5.33 -48.33)"/><path class="cls-2" d="M176.4,163.37l-.08.84-2.76.09.06-.83Z" transform="translate(-5.33 -48.33)"/><path class="cls-2" d="M185.18,162.79a4.61,4.61,0,0,1-1.22,3.34,3.87,3.87,0,0,1-2.83,1.25,3.73,3.73,0,0,1-2.69-1.15,4.17,4.17,0,0,1-1.16-3.1,4.54,4.54,0,0,1,1.22-3.34,3.82,3.82,0,0,1,2.82-1.24,3.72,3.72,0,0,1,2.7,1.14A4.19,4.19,0,0,1,185.18,162.79Zm-1.15.15a3.56,3.56,0,0,0-.88-2.58,2.7,2.7,0,0,0-2-.91,2.44,2.44,0,0,0-1.88,1,3.82,3.82,0,0,0-.83,2.57,3.58,3.58,0,0,0,.88,2.58,2.74,2.74,0,0,0,2,.92,2.44,2.44,0,0,0,1.89-1A3.87,3.87,0,0,0,184,162.94Z" transform="translate(-5.33 -48.33)"/><path class="cls-2" d="M192.11,167.12l-1,0a2.56,2.56,0,0,1-.09-.6H191a3.17,3.17,0,0,1-2.09.73,2.12,2.12,0,0,1-1.62-.54,3.31,3.31,0,0,1-.51-2.18c0-.15,0-.38,0-.69s0-.51,0-.62c0-.64,0-1.38-.11-2.24l1.2,0c-.05.83-.08,1.54-.08,2.13a8.51,8.51,0,0,0,.26,2.65,1.15,1.15,0,0,0,1.18.62,2.76,2.76,0,0,0,1.71-.52c0-2.4,0-4-.07-4.84l1.16,0c0,.81-.05,1.93-.05,3.35C192,165.25,192,166.18,192.11,167.12Z" transform="translate(-5.33 -48.33)"/><path class="cls-2" d="M199.05,163.33c0,.18,0,.43,0,.75l-4.44.08a2.34,2.34,0,0,0,.73,1.58,2.45,2.45,0,0,0,1.76.64,6.82,6.82,0,0,0,1.84-.24l-.11.91a5.34,5.34,0,0,1-1.83.25,3.41,3.41,0,0,1-2.56-.92,3.12,3.12,0,0,1-.88-2.23,3.79,3.79,0,0,1,.81-2.43,2.58,2.58,0,0,1,2.16-1,2.38,2.38,0,0,1,1.89.73A2.76,2.76,0,0,1,199.05,163.33Zm-1.08,0c0-1.21-.5-1.82-1.51-1.82s-1.65.63-1.83,1.89Z" transform="translate(-5.33 -48.33)"/><path class="cls-2" d="M204.64,165.37q0,1.89-2.4,1.89a8.87,8.87,0,0,1-2-.21l.2-1a5.12,5.12,0,0,0,1.82.32c.94,0,1.4-.27,1.4-.8a.73.73,0,0,0-.31-.62,5.11,5.11,0,0,0-1-.51,4.79,4.79,0,0,1-1.33-.7,1.49,1.49,0,0,1-.61-1.2,1.67,1.67,0,0,1,.55-1.26,2.4,2.4,0,0,1,1.7-.53,6.62,6.62,0,0,1,1.78.19l-.2.93a4.3,4.3,0,0,0-1.62-.28c-.82,0-1.24.24-1.24.72a.72.72,0,0,0,.28.58,4.66,4.66,0,0,0,1.09.54,5.36,5.36,0,0,1,1.29.67A1.52,1.52,0,0,1,204.64,165.37Z" transform="translate(-5.33 -48.33)"/><path class="cls-2" d="M209.62,166.23l-.08.84a2.64,2.64,0,0,1-1,.19,1.87,1.87,0,0,1-1.59-.59,3.85,3.85,0,0,1-.42-2.12c0-.65,0-1.51,0-2.57-.24,0-.6,0-1.07,0l0-.94c.41,0,.78,0,1.1,0,0-.26,0-.87.07-1.84l1-.11c-.07.91-.11,1.56-.11,2,.42,0,1,0,1.86-.07l0,1c-.78,0-1.4,0-1.87,0,0,.65,0,1.38,0,2.19a3.58,3.58,0,0,0,.28,1.76,1.13,1.13,0,0,0,1,.43A2.93,2.93,0,0,0,209.62,166.23Z" transform="translate(-5.33 -48.33)"/><path class="cls-3" d="M178.3,99.71l-.12-.07-.21-.28a1.73,1.73,0,0,1-.25-.44,7,7,0,0,1-.23-.78l-.43-2a5,5,0,0,0-.91-2l-.15-.17a9.92,9.92,0,0,0-2.26-1.87,1.12,1.12,0,0,1-.28-.25,2.72,2.72,0,0,1-.29-.5,2.73,2.73,0,0,0-.25-.48.89.89,0,0,0-.41-.36.52.52,0,0,0-.21,0,1,1,0,0,0-.54.2.43.43,0,0,0-.11.12,15.15,15.15,0,0,0-1.46,3.1,6.19,6.19,0,0,0-.16,3.59,1.62,1.62,0,0,0,.57.86,2.55,2.55,0,0,0,.92.45c.45.13.91.24,1.37.35a4.48,4.48,0,0,1,1.12.43,1.13,1.13,0,0,1,.43.58,2.37,2.37,0,0,1,.11.87h.19a3.1,3.1,0,0,0,.43,0,.67.67,0,0,0,.31-.07,5.92,5.92,0,0,1,1.09-.4l1.81-.44.07,0a.31.31,0,0,0,.1,0l0,0a.13.13,0,0,0,0-.06l0,0-.07-.06Z" transform="translate(-5.33 -48.33)"/><path class="cls-3" d="M148.35,106.29a11.87,11.87,0,0,1,.05-5.4l1.39-5.32q.22-.88.36-1.77a13.75,13.75,0,0,0,0-3.79,28,28,0,0,1-.29-3.77,9.6,9.6,0,0,1,.23-1.93,13.39,13.39,0,0,1,2.55-5.4,24.71,24.71,0,0,1,1.85-2.24,8.31,8.31,0,0,1,1.21-1A13.66,13.66,0,0,1,158.86,74a21.21,21.21,0,0,1,8.93-1.15l3.93.25a9.54,9.54,0,0,1,1.91.4,9.54,9.54,0,0,0,1.84.38,3.89,3.89,0,0,0,1.13-.08,10.36,10.36,0,0,0,1.32-.47,6,6,0,0,1,1.24-.41,2.21,2.21,0,0,1,.81,0,54.68,54.68,0,0,1,5.37,1.18,34,34,0,0,0,4.35.7,23,23,0,0,1,2.48.43,11.54,11.54,0,0,1,4.58,2.37l3.16,2.74a7.2,7.2,0,0,0,1.4.92,1.75,1.75,0,0,0,.32.12h.14l-.17.37a4.46,4.46,0,0,1-.58.9,1.35,1.35,0,0,1-.37.3l-.07,0a2.17,2.17,0,0,1-.66.11l-.7,0a1.5,1.5,0,0,0-.61.19.91.91,0,0,0-.21.18.65.65,0,0,0-.15.27c0,.12-.06.24-.08.36a1.11,1.11,0,0,1-.07.26.42.42,0,0,1-.14.18.45.45,0,0,1-.18.07,7.07,7.07,0,0,1-1.95-.06,14,14,0,0,0-1.94-.19,4.62,4.62,0,0,0-1,.1l-5.65.94c-.5.09-1,.2-1.5.32a16.18,16.18,0,0,0-2.44.71,4.67,4.67,0,0,0-2.15,1.65,3,3,0,0,0-.48,2.17,7.12,7.12,0,0,0,.49,1.69,34,34,0,0,0,1.64,3.38,5.36,5.36,0,0,0,1,1.24c.37.34.72.7,1.05,1.07a2.8,2.8,0,0,1,.59,1.1,2,2,0,0,1,.06.59,4.07,4.07,0,0,0,1.15-.19c.8-.27,1.59-.57,2.36-.9a8.48,8.48,0,0,1,1.27-.4,2,2,0,0,1,.6,0,.72.72,0,0,1,.4.17.49.49,0,0,1,.14.18,8.28,8.28,0,0,0,1.35,2,3.22,3.22,0,0,0,1.43,1,2.28,2.28,0,0,0,.51.09c.76.92,1.47,1.88,2.14,2.87a13,13,0,0,0,2.25,2.49l.2.17.07,0h0l0,0,.06,0,.12-.15a36,36,0,1,0-58.7-3.15A29.92,29.92,0,0,0,148.35,106.29Z" transform="translate(-5.33 -48.33)"/><path class="cls-3" d="M156.05,104.28a1.33,1.33,0,0,0,0,.28,3.18,3.18,0,0,0,.86-.16l1.35-.48a3.68,3.68,0,0,1,.73-.17,1.24,1.24,0,0,1,.54.06,3.55,3.55,0,0,1,.69.31,4.11,4.11,0,0,0,.6.28,1,1,0,0,0,.63,0l6.77-1.74a.21.21,0,0,0,.16-.17.43.43,0,0,0,0-.25l0-.06a3.89,3.89,0,0,0-.48-.43,7.91,7.91,0,0,0-1.55-.82,9.24,9.24,0,0,1-1.48-.73A2.72,2.72,0,0,1,163.69,99a4.19,4.19,0,0,1-.3-1,17.21,17.21,0,0,1-.24-2,7.51,7.51,0,0,0-.42-2,3.18,3.18,0,0,0-.16-.32,1.26,1.26,0,0,0-.47-.5,11.37,11.37,0,0,1-1.31-.86,10.25,10.25,0,0,0-1.66-1,26.28,26.28,0,0,1-1.82,4.43l-.12.24c-.29.52-.57,1-.83,1.58s-.53,1-.82,1.56a8.4,8.4,0,0,0-.89,2.2l0,.1a1,1,0,0,0,.08.62,1.43,1.43,0,0,0,.37.44c.18.15.37.29.56.43a2.05,2.05,0,0,1,.46.47.28.28,0,0,1,0,.12.88.88,0,0,1,0,.23A3.86,3.86,0,0,1,156.05,104.28Z" transform="translate(-5.33 -48.33)"/><path class="cls-3" d="M194.6,78.46a4.32,4.32,0,0,0,.71.17h.16l0,0v0l0-.08a1.64,1.64,0,0,0-.21-.25,2.67,2.67,0,0,0-.61-.5.53.53,0,0,0-.32-.08.33.33,0,0,0-.21.11.37.37,0,0,0-.1.22.36.36,0,0,0,.11.24l.11.08A2.39,2.39,0,0,0,194.6,78.46Z" transform="translate(-5.33 -48.33)"/><path class="cls-4" d="M15.29,102.74l-1.73.36h0Z" transform="translate(-5.33 -48.33)"/><path class="cls-4" d="M10.38,103.81l-1.08.26,1.09-.26Z" transform="translate(-5.33 -48.33)"/><path class="cls-4" d="M7,104.65l1.41-.36Z" transform="translate(-5.33 -48.33)"/><path class="cls-4" d="M6.23,104.85l-.9.25h0Z" transform="translate(-5.33 -48.33)"/><path class="cls-4" d="M12.75,103.27l-1.16.26.59-.13Z" transform="translate(-5.33 -48.33)"/><path class="cls-5" d="M10.7,103.74l-.33.07h0l.31-.07Z" transform="translate(-5.33 -48.33)"/><path class="cls-5" d="M15.29,102.74l.87-.17Z" transform="translate(-5.33 -48.33)"/><path class="cls-5" d="M13.28,103.16l-.53.11.32-.07Z" transform="translate(-5.33 -48.33)"/><path class="cls-4" d="M13.07,103.2l-.32.07-.57.13Z" transform="translate(-5.33 -48.33)"/><path class="cls-5" d="M13.07,103.2l-.32.07-.57.13Z" transform="translate(-5.33 -48.33)"/><path class="cls-4" d="M10.69,103.74l-.31.07h0Z" transform="translate(-5.33 -48.33)"/><path class="cls-5" d="M10.69,103.74l-.31.07h0Z" transform="translate(-5.33 -48.33)"/><path class="cls-6" d="M13.56,103.1h0l-.26.06.24,0Z" transform="translate(-5.33 -48.33)"/><path class="cls-6" d="M6.23,104.85l.78-.2Z" transform="translate(-5.33 -48.33)"/><path class="cls-6" d="M11.59,103.53l-.89.21h.05Z" transform="translate(-5.33 -48.33)"/><path class="cls-6" d="M8.42,104.29l.88-.22Z" transform="translate(-5.33 -48.33)"/><path class="cls-4" d="M13.56,103.1Z" transform="translate(-5.33 -48.33)"/><path class="cls-6" d="M13.56,103.1Z" transform="translate(-5.33 -48.33)"/><path class="cls-4" d="M12.18,103.4l-.59.13-.84.2Z" transform="translate(-5.33 -48.33)"/><path class="cls-6" d="M12.18,103.4l-.59.13-.84.2Z" transform="translate(-5.33 -48.33)"/><path class="cls-5" d="M13.52,103.11l-.24,0-.21,0Z" transform="translate(-5.33 -48.33)"/><path class="cls-6" d="M13.52,103.11l-.24,0-.21,0Z" transform="translate(-5.33 -48.33)"/><path class="cls-5" d="M10.75,103.73h0Z" transform="translate(-5.33 -48.33)"/><path class="cls-6" d="M10.75,103.73h0Z" transform="translate(-5.33 -48.33)"/><path class="cls-4" d="M77,123.65l-.36-.11.44.14,1.69.54c4.54,1.45,9.37,2.79,14.44,4s10.42,2.31,16,3.23q4.52.76,9.2,1.36a7.51,7.51,0,0,0,.28-2.25c-.37-10.42-23.71-18.09-55.59-19.49C70.67,114.58,75.62,118.85,77,123.65Z" transform="translate(-5.33 -48.33)"/><path class="cls-4" d="M19.5,100.41l2.67-.46Z" transform="translate(-5.33 -48.33)"/><path class="cls-4" d="M16.86,100.9l1.83-.34Z" transform="translate(-5.33 -48.33)"/><path class="cls-4" d="M18.48,101.68a185.35,185.35,0,0,1,22.45,2.8c6.29-.83,12.87-1.52,19.67-2-6.15-.55-12.59-.92-19.27-1.08C33.6,101.19,26,101.31,18.48,101.68Z" transform="translate(-5.33 -48.33)"/><path class="cls-4" d="M87.23,101.39l-.08,0,.07,0Z" transform="translate(-5.33 -48.33)"/><path class="cls-5" d="M60.6,102.45c18.91,1.71,35.12,5.22,47.22,9.93-3.44-2.34-5.82-4.9-7-7.66L99,104.21c-3.7-1-7.64-2-11.82-2.82-5.57,0-11.32.17-17.18.47Q65.26,102.1,60.6,102.45Z" transform="translate(-5.33 -48.33)"/><path class="cls-5" d="M82.57,100.51c1.56.27,3.09.56,4.58.86C85.65,101.07,84.13,100.78,82.57,100.51Z" transform="translate(-5.33 -48.33)"/><path class="cls-5" d="M18.69,100.56l.81-.15Z" transform="translate(-5.33 -48.33)"/><path class="cls-4" d="M18.48,101.68c7.47-.37,15.12-.49,22.85-.31,6.68.16,13.12.53,19.27,1.08q4.65-.35,9.44-.59c5.86-.3,11.61-.45,17.18-.47l-.07,0c-1.49-.3-3-.59-4.58-.86l-2.25-.38L78,99.77l-2.33-.33c-.79-.1-1.57-.21-2.38-.3-3.19-.39-6.48-.72-9.87-1l-1.27-.08L60.9,98l-2.58-.13-1.3,0-1.31,0-2.62,0c-1.75,0-3.52,0-5.28,0-.89,0-1.76,0-2.65.06l-1.32,0-1.32,0a177.9,177.9,0,0,0-20.35,2l-2.67.46-.81.15-1.83.34-.87.18-1.73.35C15.68,101.5,17.08,101.59,18.48,101.68Z" transform="translate(-5.33 -48.33)"/><path class="cls-5" d="M18.48,101.68c7.47-.37,15.12-.49,22.85-.31,6.68.16,13.12.53,19.27,1.08q4.65-.35,9.44-.59c5.86-.3,11.61-.45,17.18-.47l-.07,0c-1.49-.3-3-.59-4.58-.86l-2.25-.38L78,99.77l-2.33-.33c-.79-.1-1.57-.21-2.38-.3-3.19-.39-6.48-.72-9.87-1l-1.27-.08L60.9,98l-2.58-.13-1.3,0-1.31,0-2.62,0c-1.75,0-3.52,0-5.28,0-.89,0-1.76,0-2.65.06l-1.32,0-1.32,0a177.9,177.9,0,0,0-20.35,2l-2.67.46-.81.15-1.83.34-.87.18-1.73.35C15.68,101.5,17.08,101.59,18.48,101.68Z" transform="translate(-5.33 -48.33)"/><path class="cls-7" d="M179.33,122.9c5.3-.26,10.46-.73,15.43-1.38a17.27,17.27,0,0,0,2.25-4.81l.43-.07-.89.15c-3,.46-6.22.83-9.52,1.09s-6.72.43-10.22.48a185.83,185.83,0,0,1-21.63-1,210.49,210.49,0,0,1-22-3.53c-3.64-.77-7.26-1.64-10.82-2.59s-7.08-2-10.54-3l-1.29-.41-1.21-.38-2.77-.92C116.67,117.61,145.57,124.6,179.33,122.9Z" transform="translate(-5.33 -48.33)"/><path class="cls-8" d="M191.71,125.31l-3.08.17c-28,1.41-53-1.62-69.27-7.49,7.71,4.77,12,10.28,11.82,16.14,1.41.11,2.83.21,4.25.3,3,.18,6.1.3,9.17.38,6.15.15,12.35.07,18.44-.24,1.53-.07,3-.17,4.55-.27s3-.23,4.5-.36,3-.29,4.42-.45l2.19-.25,2.16-.28,1.36-.19A48.7,48.7,0,0,0,191.71,125.31Z" transform="translate(-5.33 -48.33)"/><path class="cls-9" d="M209.54,119c-4.68,1-9.63,1.88-14.78,2.55a26.25,26.25,0,0,1-3,3.79c6.13-.38,12.1-1,17.83-1.71Z" transform="translate(-5.33 -48.33)"/><path class="cls-10" d="M191.71,125.31a48.7,48.7,0,0,1-9.49,7.46l.16,0q1.8-.25,3.54-.54l.36-.05c1.16-.19,2.32-.39,3.46-.6l.32-.06c1.15-.21,2.28-.43,3.38-.66l.26-.05c1.13-.24,2.26-.48,3.35-.73a122.73,122.73,0,0,0,12.49-3.54V123.6C203.81,124.35,197.84,124.93,191.71,125.31Z" transform="translate(-5.33 -48.33)"/><path class="cls-3" d="M194.76,121.52c5.15-.67,10.1-1.53,14.78-2.55v-5l-.59.17c-1.23.35-2.51.69-3.84,1q-1,.24-2,.45l-.86.18-1.17.24-1.21.22-.86.16-1.59.26-.43.07A17.27,17.27,0,0,1,194.76,121.52Z" transform="translate(-5.33 -48.33)"/><path class="cls-6" d="M6.05,115a244.74,244.74,0,0,1,33.09-3.84c8.31-.42,16.33-.44,23.88-.1a98.45,98.45,0,0,0-22.09-6.6A247.9,247.9,0,0,0,6.05,111.4Z" transform="translate(-5.33 -48.33)"/><path class="cls-4" d="M39.14,111.18A244.74,244.74,0,0,0,6.05,115v4.27c1.5-.38,3-.75,4.56-1.09,3.22-.72,6.53-1.33,9.82-1.81s6.56-.8,9.74-1,6.25-.18,9.3,0c.76,0,1.52.08,2.28.13s1.53.11,2.29.18l1.15.11.57.06.58.07,1.15.14.58.07.58.08c1.54.21,3.1.47,4.67.76.79.14,1.57.3,2.37.46l1.18.25.6.14.6.13c3.17.73,6.38,1.6,9.57,2.59q2.39.73,4.76,1.56l1.36.48.73.25.36.12.42.14.88.3.44.15.36.11c-1.33-4.8-6.28-9.07-13.93-12.57C55.47,110.74,47.45,110.76,39.14,111.18Z" transform="translate(-5.33 -48.33)"/><path class="cls-6" d="M39.14,111.18A244.74,244.74,0,0,0,6.05,115v4.27c1.5-.38,3-.75,4.56-1.09,3.22-.72,6.53-1.33,9.82-1.81s6.56-.8,9.74-1,6.25-.18,9.3,0c.76,0,1.52.08,2.28.13s1.53.11,2.29.18l1.15.11.57.06.58.07,1.15.14.58.07.58.08c1.54.21,3.1.47,4.67.76.79.14,1.57.3,2.37.46l1.18.25.6.14.6.13c3.17.73,6.38,1.6,9.57,2.59q2.39.73,4.76,1.56l1.36.48.73.25.36.12.42.14.88.3.44.15.36.11c-1.33-4.8-6.28-9.07-13.93-12.57C55.47,110.74,47.45,110.76,39.14,111.18Z" transform="translate(-5.33 -48.33)"/><path class="cls-4" d="M6.05,111.4a247.9,247.9,0,0,1,34.88-6.92,185.35,185.35,0,0,0-22.45-2.8q-3.72.19-7.38.46L10,102.4l-.88.22-1.4.36-.77.2-.91.25Z" transform="translate(-5.33 -48.33)"/><path class="cls-6" d="M6.05,111.4a247.9,247.9,0,0,1,34.88-6.92,185.35,185.35,0,0,0-22.45-2.8q-3.72.19-7.38.46L10,102.4l-.88.22-1.4.36-.77.2-.91.25Z" transform="translate(-5.33 -48.33)"/><path class="cls-4" d="M14.23,101.44l-.45.1-.89.19-1.43.33H11.4l-.3.07q3.66-.27,7.38-.46c-1.4-.09-2.8-.18-4.22-.25Z" transform="translate(-5.33 -48.33)"/><path class="cls-5" d="M14.23,101.44l-.45.1-.89.19-1.43.33H11.4l-.3.07q3.66-.27,7.38-.46c-1.4-.09-2.8-.18-4.22-.25Z" transform="translate(-5.33 -48.33)"/><path class="cls-6" d="M14.23,101.44l-.45.1-.89.19-1.43.33H11.4l-.3.07q3.66-.27,7.38-.46c-1.4-.09-2.8-.18-4.22-.25Z" transform="translate(-5.33 -48.33)"/></g></g></svg>