<svg version="1.2" baseProfile="tiny" xmlns="http://www.w3.org/2000/svg" viewBox="0 0 171.6 221.9"><path fill="#96A73A" d="M11 114.6c-1.7 0-3.5-.4-5.1-1.3-5.4-2.8-7.5-9.5-4.7-14.9l28.9-55.2c1.8-3.4 5.3-5.7 9.1-5.9 3.8-.2 7.6 1.6 9.8 4.7l11.4 16.4L80.7 7C82.2 3.1 85.8.4 90 0c4.2-.4 8.2 1.6 10.4 5.1l23.3 37.3 16.6-17.3c4.2-4.4 11.2-4.5 15.6-.3s4.5 11.2.3 15.6L129.8 68c-2.4 2.5-5.7 3.7-9.1 3.3-3.4-.3-6.4-2.2-8.2-5.1L93.2 35.5 73.4 85.9c-1.5 3.8-5 6.5-9 6.9-4 .5-8-1.3-10.4-4.7L41.3 69.7l-20.5 39c-1.9 3.8-5.8 5.9-9.8 5.9z"/><path fill="#6A7072" d="M117.8 143.2c0 16.3-13.2 29.6-29.6 29.6-16.3 0-29.6-13.2-29.6-29.6 0-16.3 13.2-29.6 29.6-29.6 16.4 0 29.6 13.3 29.6 29.6z"/><path fill="#6A7072" d="M83.6 221.9c-43.5 0-78.8-35.4-78.8-78.8 0-6.1 4.9-11 11.1-11 6.1 0 11 4.9 11 11 0 31.3 25.4 56.7 56.7 56.7 30.8 0 51.8-12.9 62.4-38.4 8-19.3.9-50.3-5-60.8-3-5.3-1.1-12.1 4.2-15.1 5.3-3 12.1-1.1 15 4.2 9.3 16.5 16.8 54.5 6.1 80.1-13.8 33.6-43.3 52.1-82.7 52.1z"/></svg>