<svg id="Layer_1" data-name="Layer 1" xmlns="http://www.w3.org/2000/svg" viewBox="0 0 214 306.43"><defs><style>.cls-1{fill:#96a73a;}.cls-2{fill:#6a7072;}</style></defs><title>SNAP_acronym_color_square</title><path class="cls-1" d="M32.23,114.62a10.94,10.94,0,0,1-5.11-1.26,11.05,11.05,0,0,1-4.66-14.92L51.4,43.22a11,11,0,0,1,9.11-5.9,11.18,11.18,0,0,1,9.77,4.74L81.64,58.5,101.9,7a11,11,0,0,1,19.64-1.82l23.33,37.25,16.59-17.25A11.05,11.05,0,0,1,177.4,40.5L151,68a11,11,0,0,1-17.33-1.8L114.44,35.49,94.62,85.87a11.05,11.05,0,0,1-19.37,2.24L62.49,69.66,42,108.7a11.07,11.07,0,0,1-9.81,5.92Z" transform="translate(-0.02 0)"/><path class="cls-2" d="M139,143.23a29.58,29.58,0,1,1-29.58-29.59A29.58,29.58,0,0,1,139,143.23Z" transform="translate(-0.02 0)"/><path class="cls-2" d="M104.8,221.9A78.9,78.9,0,0,1,26,143.09a11,11,0,1,1,22.1,0,56.78,56.78,0,0,0,56.72,56.72c30.8,0,51.81-12.94,62.42-38.43,8.05-19.31.93-50.28-5-60.77A11.05,11.05,0,1,1,181.5,89.77c9.28,16.47,16.79,54.48,6.12,80.1-14,33.55-43.38,52-82.82,52Z" transform="translate(-0.02 0)"/><path class="cls-2" d="M36.62,256.85a3.83,3.83,0,0,1-1.06,1.26,2.34,2.34,0,0,1-1.38.39,3.58,3.58,0,0,1-1.89-.64c-.67-.42-1.48-.9-2.41-1.42A19.91,19.91,0,0,0,26.59,255a13.79,13.79,0,0,0-4.45-.64,13.34,13.34,0,0,0-4.05.56,8.4,8.4,0,0,0-2.91,1.55,6,6,0,0,0-1.76,2.38,7.7,7.7,0,0,0-.58,3A5.27,5.27,0,0,0,14,265.41a9.66,9.66,0,0,0,3.12,2.4,30.1,30.1,0,0,0,4.42,1.78c1.66.52,3.35,1.08,5.09,1.67a46.76,46.76,0,0,1,5.09,2.07,17.34,17.34,0,0,1,4.42,3,13.3,13.3,0,0,1,3.12,4.4A15.25,15.25,0,0,1,40.46,287a20.62,20.62,0,0,1-1.38,7.58A17.59,17.59,0,0,1,35,300.79a19,19,0,0,1-6.51,4.13,23.89,23.89,0,0,1-8.81,1.51,28.57,28.57,0,0,1-5.62-.56,29.12,29.12,0,0,1-5.31-1.59A28.8,28.8,0,0,1,4,301.8a23.11,23.11,0,0,1-4-3.23l3.27-5.33a3.34,3.34,0,0,1,1.07-1,2.73,2.73,0,0,1,1.41-.39,4,4,0,0,1,2.23.84c.8.57,1.75,1.19,2.85,1.88a23.26,23.26,0,0,0,3.87,1.89,15,15,0,0,0,5.31.84c3.17,0,5.63-.75,7.36-2.25A8.08,8.08,0,0,0,30,288.61a6,6,0,0,0-1.18-3.85,9.49,9.49,0,0,0-3.12-2.5,23.79,23.79,0,0,0-4.43-1.72q-2.47-.69-5-1.53a43.16,43.16,0,0,1-5-2,16.32,16.32,0,0,1-4.43-3,13.58,13.58,0,0,1-3.12-4.65,17.67,17.67,0,0,1-1.18-6.89,16.5,16.5,0,0,1,5.09-11.86,18.53,18.53,0,0,1,6.12-3.85A22.54,22.54,0,0,1,22,245.31,28,28,0,0,1,31.78,247a21.94,21.94,0,0,1,7.61,4.63Z" transform="translate(-0.02 0)"/><path class="cls-2" d="M56.59,246a2.7,2.7,0,0,1,.91.25,3,3,0,0,1,.77.53,10.7,10.7,0,0,1,.82.93l31.35,40c-.09-1-.15-1.91-.21-2.85s-.08-1.81-.08-2.61V246H100v59.79H94.24a5,5,0,0,1-2.21-.44,5.16,5.16,0,0,1-1.72-1.46L59.09,264.05c.09.88.15,1.75.19,2.62s.06,1.66.06,2.38v36.72h-9.8V246h5.83A10.68,10.68,0,0,1,56.59,246Z" transform="translate(-0.02 0)"/><path class="cls-2" d="M165.15,305.77h-8.6a3.64,3.64,0,0,1-2.36-.73,4.53,4.53,0,0,1-1.36-1.79l-4.47-12.2H123.59l-4.46,12.2a3.92,3.92,0,0,1-1.29,1.73,3.53,3.53,0,0,1-2.35.79H106.8L130.33,246h11.33Zm-38.71-22.58h19.07l-7.28-19.89c-.36-.88-.73-1.92-1.12-3.12s-.77-2.5-1.15-3.91q-.59,2.12-1.14,3.93c-.37,1.21-.74,2.27-1.1,3.18Z" transform="translate(-0.02 0)"/><path class="cls-2" d="M182.47,284.72v21H171.35V246h19.44a34.13,34.13,0,0,1,10.38,1.4,20,20,0,0,1,7.23,3.93,15.52,15.52,0,0,1,4.24,6A20.83,20.83,0,0,1,214,265a21.35,21.35,0,0,1-1.44,8,16.6,16.6,0,0,1-4.34,6.22,20.06,20.06,0,0,1-7.26,4,32.28,32.28,0,0,1-10.19,1.45Zm0-8.68h8.32a16.74,16.74,0,0,0,5.33-.77,10,10,0,0,0,3.78-2.19,8.9,8.9,0,0,0,2.26-3.47,13.48,13.48,0,0,0,.74-4.57,12.16,12.16,0,0,0-.74-4.34,8.53,8.53,0,0,0-2.24-3.31,9.84,9.84,0,0,0-3.76-2.09,17.9,17.9,0,0,0-5.37-.72h-8.32Z" transform="translate(-0.02 0)"/></svg>