<svg id="Layer_1" data-name="Layer 1" xmlns="http://www.w3.org/2000/svg" viewBox="0 0 552.39 283.78"><defs><style>.cls-1{fill:#96a73a;}.cls-2{fill:#6a7072;}</style></defs><title>SNAP_color_all</title><path class="cls-1" d="M9.86,102.38A9.87,9.87,0,0,1,1.13,87.93L27,38.6a9.89,9.89,0,0,1,8.15-5.27,10,10,0,0,1,8.72,4.24L54,52.25l18.1-46A9.87,9.87,0,0,1,89.63,4.63l20.84,33.28L125.29,22.5a9.87,9.87,0,0,1,14.23,13.68L115.93,60.71a9.87,9.87,0,0,1-15.48-1.6L83.28,31.7l-17.7,45a9.87,9.87,0,0,1-17.3,2L36.88,62.22,18.61,97.09a9.86,9.86,0,0,1-8.75,5.29Z"/><path class="cls-2" d="M105.22,127.93A26.42,26.42,0,1,1,78.8,101.51,26.42,26.42,0,0,1,105.22,127.93Z"/><path class="cls-2" d="M74.67,198.2a70.47,70.47,0,0,1-70.4-70.39,9.87,9.87,0,0,1,19.74,0,50.72,50.72,0,0,0,50.66,50.66c27.52,0,46.28-11.55,55.76-34.32,7.18-17.25.83-44.91-4.45-54.29a9.87,9.87,0,0,1,17.2-9.68c8.29,14.71,15,48.66,5.47,71.55-12.47,30-38.74,46.47-74,46.47Z"/><path class="cls-2" d="M240.18,100.56a6.66,6.66,0,0,1-1.86,2.22,4.1,4.1,0,0,1-2.43.69,6.34,6.34,0,0,1-3.32-1.13q-1.77-1.12-4.25-2.51a35,35,0,0,0-5.79-2.51,24.35,24.35,0,0,0-7.82-1.13,23.49,23.49,0,0,0-7.13,1,15.09,15.09,0,0,0-5.13,2.73,10.88,10.88,0,0,0-3.1,4.19,13.89,13.89,0,0,0-1,5.35,9.31,9.31,0,0,0,2.07,6.18,17.2,17.2,0,0,0,5.49,4.22,50.31,50.31,0,0,0,7.79,3.13c2.91.92,5.9,1.91,8.95,3a81.8,81.8,0,0,1,9,3.64,30.87,30.87,0,0,1,7.79,5.24,23.66,23.66,0,0,1,5.49,7.75A26.74,26.74,0,0,1,247,153.68,36.41,36.41,0,0,1,244.51,167a30.91,30.91,0,0,1-7.13,10.84,33.59,33.59,0,0,1-11.46,7.27,42.25,42.25,0,0,1-15.5,2.66,50.36,50.36,0,0,1-9.9-1,52.65,52.65,0,0,1-9.35-2.8,50.3,50.3,0,0,1-8.41-4.37,40.11,40.11,0,0,1-7-5.68l5.75-9.38a6,6,0,0,1,1.89-1.71,4.75,4.75,0,0,1,2.47-.69,6.92,6.92,0,0,1,3.93,1.49c1.41,1,3.08,2.1,5,3.31a39.29,39.29,0,0,0,6.81,3.31A26.23,26.23,0,0,0,211,171.8q8.37,0,12.95-4t4.59-11.38a10.6,10.6,0,0,0-2.08-6.77,16.67,16.67,0,0,0-5.49-4.4,40.67,40.67,0,0,0-7.79-3q-4.37-1.24-8.88-2.7a75.88,75.88,0,0,1-8.87-3.49,28.74,28.74,0,0,1-7.79-5.31,24.32,24.32,0,0,1-5.5-8.19,31.21,31.21,0,0,1-2.07-12.11,28.64,28.64,0,0,1,2.29-11.21A28.93,28.93,0,0,1,189,89.57a32.7,32.7,0,0,1,10.77-6.77,39.52,39.52,0,0,1,14.7-2.54,49,49,0,0,1,17.17,2.91,38.72,38.72,0,0,1,13.4,8.15Z"/><path class="cls-2" d="M275.33,81.53a5,5,0,0,1,1.6.44,5.16,5.16,0,0,1,1.35.94,15.22,15.22,0,0,1,1.46,1.64L334.9,155c-.15-1.7-.27-3.37-.37-5s-.14-3.18-.14-4.58v-64h17.24V186.65h-10a8.81,8.81,0,0,1-3.89-.77,9.16,9.16,0,0,1-3-2.58l-54.94-70.08c.14,1.55.25,3.09.32,4.62s.11,2.93.11,4.18v64.63H262.93V81.42h10.26A18.76,18.76,0,0,1,275.33,81.53Z"/><path class="cls-2" d="M466.38,186.65H451.24a6.42,6.42,0,0,1-4.14-1.28,8,8,0,0,1-2.41-3.16l-7.86-21.47H393.24l-7.86,21.47a7,7,0,0,1-2.25,3,6.27,6.27,0,0,1-4.15,1.39H363.7L405.11,81.42h19.94Zm-68.12-39.74h33.55l-12.8-35c-.64-1.55-1.29-3.38-2-5.49s-1.36-4.41-2-6.88c-.68,2.47-1.34,4.78-2,6.91s-1.3,4-1.93,5.61Z"/><path class="cls-2" d="M496.87,149.61v37H477.29V81.42H511.5a60,60,0,0,1,18.26,2.47,35.23,35.23,0,0,1,12.74,6.92A27.46,27.46,0,0,1,550,101.43,36.75,36.75,0,0,1,552.39,115a37.5,37.5,0,0,1-2.54,14,29.09,29.09,0,0,1-7.65,11,35.58,35.58,0,0,1-12.77,7.13,56.94,56.94,0,0,1-17.93,2.55Zm0-15.29H511.5a29.39,29.39,0,0,0,9.38-1.34,17.86,17.86,0,0,0,6.66-3.86,15.57,15.57,0,0,0,4-6.11,23.46,23.46,0,0,0,1.31-8,21.26,21.26,0,0,0-1.31-7.64,15.06,15.06,0,0,0-3.93-5.83A17.58,17.58,0,0,0,521,97.83a31.35,31.35,0,0,0-9.46-1.27H496.87Z"/><path class="cls-1" d="M19,224.44a1.73,1.73,0,0,1-.5.6,1.09,1.09,0,0,1-.66.19,1.65,1.65,0,0,1-.9-.31c-.32-.2-.71-.43-1.15-.68a9.26,9.26,0,0,0-1.57-.67,6.4,6.4,0,0,0-2.12-.31,6.25,6.25,0,0,0-1.93.27,4.08,4.08,0,0,0-1.39.73A3.13,3.13,0,0,0,8,225.4a3.78,3.78,0,0,0-.27,1.45,2.53,2.53,0,0,0,.56,1.67,4.5,4.5,0,0,0,1.49,1.14,13,13,0,0,0,2.11.85l2.42.8a20.46,20.46,0,0,1,2.42,1,8.11,8.11,0,0,1,2.11,1.41,6.51,6.51,0,0,1,1.49,2.1,7.24,7.24,0,0,1,.56,3,9.86,9.86,0,0,1-.66,3.62,8.27,8.27,0,0,1-1.93,2.93,9,9,0,0,1-3.1,2,11.41,11.41,0,0,1-4.2.72,13.69,13.69,0,0,1-5.21-1,13.64,13.64,0,0,1-2.28-1.18,11.12,11.12,0,0,1-1.89-1.54l1.55-2.54a1.81,1.81,0,0,1,.52-.47,1.32,1.32,0,0,1,.67-.18,1.85,1.85,0,0,1,1.06.4c.38.27.84.57,1.36.9a11.69,11.69,0,0,0,1.84.89,7.12,7.12,0,0,0,2.54.41,5.19,5.19,0,0,0,3.51-1.08,3.86,3.86,0,0,0,1.24-3.08,2.87,2.87,0,0,0-.56-1.83,4.58,4.58,0,0,0-1.49-1.2,11.75,11.75,0,0,0-2.11-.82c-.79-.22-1.59-.46-2.41-.72a22.15,22.15,0,0,1-2.4-.95,7.89,7.89,0,0,1-2.11-1.44,6.56,6.56,0,0,1-1.49-2.22,8.51,8.51,0,0,1-.56-3.28,7.85,7.85,0,0,1,2.43-5.65,8.67,8.67,0,0,1,2.91-1.84,10.75,10.75,0,0,1,4-.69,13.35,13.35,0,0,1,4.65.79,10.53,10.53,0,0,1,3.63,2.21Z"/><path class="cls-1" d="M52.53,241a1.06,1.06,0,0,1,.77.33l2.09,2.27a11.47,11.47,0,0,1-4.26,3.29,14.76,14.76,0,0,1-6.08,1.14A14.42,14.42,0,0,1,39.34,247,12.56,12.56,0,0,1,35,244a13.22,13.22,0,0,1-2.75-4.61,17.51,17.51,0,0,1-.95-5.85,16.41,16.41,0,0,1,1-5.89,13.68,13.68,0,0,1,2.89-4.6,12.86,12.86,0,0,1,4.45-3,14.64,14.64,0,0,1,5.71-1.08,13.91,13.91,0,0,1,5.53,1A13,13,0,0,1,55,222.65l-1.78,2.46a1.59,1.59,0,0,1-.4.42,1.2,1.2,0,0,1-.68.17,1.29,1.29,0,0,1-.61-.16c-.21-.12-.44-.25-.69-.42l-.87-.54a6.72,6.72,0,0,0-1.14-.54,9.54,9.54,0,0,0-1.51-.42,10.58,10.58,0,0,0-2-.16,8.71,8.71,0,0,0-3.5.68,7.7,7.7,0,0,0-2.73,2,9.1,9.1,0,0,0-1.77,3.15,13.24,13.24,0,0,0-.63,4.25,12.5,12.5,0,0,0,.68,4.27,9.5,9.5,0,0,0,1.84,3.16,7.93,7.93,0,0,0,2.74,2,8.52,8.52,0,0,0,3.39.68,14.52,14.52,0,0,0,2-.12,8.38,8.38,0,0,0,1.62-.37,7.17,7.17,0,0,0,1.4-.66,9.5,9.5,0,0,0,1.31-1,1.76,1.76,0,0,1,.41-.28A.93.93,0,0,1,52.53,241Z"/><path class="cls-1" d="M71.85,223.48v7.9h10v4.08h-10v8.06H84.5v4.24h-18v-28.5h18v4.22Z"/><path class="cls-1" d="M120.71,219.26v28.5H118a2.41,2.41,0,0,1-1.06-.21,2.45,2.45,0,0,1-.81-.7l-14.88-19c.07.87.11,1.67.11,2.41v17.5H96.68v-28.5h2.78a4.73,4.73,0,0,1,.58,0,1.42,1.42,0,0,1,.44.12,1.56,1.56,0,0,1,.36.25,3.9,3.9,0,0,1,.4.45l14.93,19.07c0-.46-.07-.91-.09-1.36s0-.86,0-1.24V219.26Z"/><path class="cls-1" d="M159,247.76h-4.1a1.74,1.74,0,0,1-1.12-.35,2.09,2.09,0,0,1-.65-.85L151,240.74h-11.8L137,246.56a1.94,1.94,0,0,1-.61.82,1.73,1.73,0,0,1-1.13.38h-4.14l11.22-28.5h5.4ZM149.6,237l-3.47-9.48c-.17-.42-.35-.92-.53-1.5s-.37-1.2-.55-1.87c-.17.67-.35,1.29-.53,1.88s-.36,1.09-.54,1.53L140.54,237Z"/><path class="cls-1" d="M191.66,247.76h-4.79a2.1,2.1,0,0,1-2-1.07l-6-9.12a2.13,2.13,0,0,0-.74-.73,2.52,2.52,0,0,0-1.19-.22h-2.27v11.14h-5.3v-28.5h8.69a18.15,18.15,0,0,1,5,.6,9.63,9.63,0,0,1,3.41,1.68,6.69,6.69,0,0,1,2,2.6,9,9,0,0,1,.2,6,7.8,7.8,0,0,1-1.22,2.32,8.27,8.27,0,0,1-2,1.84,9.93,9.93,0,0,1-2.67,1.24,5,5,0,0,1,1.74,1.65ZM178,232.82a8.16,8.16,0,0,0,2.61-.38,5.11,5.11,0,0,0,1.84-1,4.15,4.15,0,0,0,1.07-1.57,5.34,5.34,0,0,0,.35-2,4.06,4.06,0,0,0-1.42-3.33,6.89,6.89,0,0,0-4.37-1.16h-3.39v9.46Z"/><path class="cls-1" d="M207.56,247.76h-5.32v-28.5h5.32Z"/><path class="cls-1" d="M248.6,233.51a15.9,15.9,0,0,1-1,5.8,13.62,13.62,0,0,1-2.92,4.62,13.29,13.29,0,0,1-4.56,3,16.51,16.51,0,0,1-11.8,0,13.29,13.29,0,0,1-4.56-3,13.69,13.69,0,0,1-2.95-4.62,16.72,16.72,0,0,1,0-11.61,13.69,13.69,0,0,1,2.95-4.62,13.27,13.27,0,0,1,4.56-3,15.33,15.33,0,0,1,5.89-1.1,15.73,15.73,0,0,1,4.08.51,14,14,0,0,1,3.51,1.41,13.56,13.56,0,0,1,2.87,2.23,13.82,13.82,0,0,1,2.15,2.93,14.14,14.14,0,0,1,1.36,3.51A17.09,17.09,0,0,1,248.6,233.51Zm-5.42,0a13.07,13.07,0,0,0-.63-4.21,8.89,8.89,0,0,0-1.8-3.16,7.58,7.58,0,0,0-2.82-2,10.56,10.56,0,0,0-7.51,0,7.73,7.73,0,0,0-2.84,2,8.89,8.89,0,0,0-1.8,3.16,14.38,14.38,0,0,0,0,8.42,8.84,8.84,0,0,0,1.8,3.15,7.83,7.83,0,0,0,2.84,2,10.56,10.56,0,0,0,7.51,0,7.67,7.67,0,0,0,2.82-2,8.84,8.84,0,0,0,1.8-3.15A13.16,13.16,0,0,0,243.18,233.51Z"/><path class="cls-1" d="M275.93,224.44a1.63,1.63,0,0,1-.5.6,1.09,1.09,0,0,1-.66.19,1.71,1.71,0,0,1-.9-.31c-.32-.2-.7-.43-1.15-.68a9.13,9.13,0,0,0-1.56-.67,6.44,6.44,0,0,0-2.12-.31,6.2,6.2,0,0,0-1.93.27,3.9,3.9,0,0,0-1.39.73,2.92,2.92,0,0,0-.84,1.14,3.61,3.61,0,0,0-.28,1.45,2.53,2.53,0,0,0,.56,1.67,4.6,4.6,0,0,0,1.49,1.14,13.43,13.43,0,0,0,2.11.85c.79.25,1.6.52,2.43.8a22,22,0,0,1,2.42,1,8.28,8.28,0,0,1,2.11,1.41,6.67,6.67,0,0,1,1.49,2.1,7.4,7.4,0,0,1,.56,3,9.86,9.86,0,0,1-.66,3.62,8.41,8.41,0,0,1-1.93,2.93,9.09,9.09,0,0,1-3.11,2,11.41,11.41,0,0,1-4.2.72,13.69,13.69,0,0,1-5.21-1,13.64,13.64,0,0,1-2.28-1.18,11.12,11.12,0,0,1-1.89-1.54l1.56-2.54a1.65,1.65,0,0,1,.51-.47,1.32,1.32,0,0,1,.67-.18,1.9,1.9,0,0,1,1.07.4c.38.27.83.57,1.36.9a11.28,11.28,0,0,0,1.84.89,7.06,7.06,0,0,0,2.53.41,5.19,5.19,0,0,0,3.51-1.08,3.83,3.83,0,0,0,1.24-3.08,2.87,2.87,0,0,0-.56-1.83,4.38,4.38,0,0,0-1.49-1.2,11.75,11.75,0,0,0-2.11-.82q-1.19-.33-2.4-.72a21.52,21.52,0,0,1-2.41-.95,8.05,8.05,0,0,1-2.11-1.44,6.54,6.54,0,0,1-1.48-2.22,8.32,8.32,0,0,1-.56-3.28,7.89,7.89,0,0,1,2.42-5.65,8.72,8.72,0,0,1,2.92-1.84,10.67,10.67,0,0,1,4-.69,13.43,13.43,0,0,1,4.65.79,10.53,10.53,0,0,1,3.63,2.21Z"/><path class="cls-1" d="M331,219.26v28.5h-2.72a2.34,2.34,0,0,1-1.05-.21,2.48,2.48,0,0,1-.82-.7l-14.88-19c.08.87.12,1.67.12,2.41v17.5h-4.67v-28.5h2.78a5,5,0,0,1,.58,0,1.35,1.35,0,0,1,.43.12,1.42,1.42,0,0,1,.37.25,5.27,5.27,0,0,1,.39.45l14.94,19.07c0-.46-.07-.91-.1-1.36s0-.86,0-1.24V219.26Z"/><path class="cls-1" d="M350.12,223.48v7.9h10v4.08h-10v8.06h12.65v4.24h-18v-28.5h18v4.22Z"/><path class="cls-1" d="M394.86,223.61h-8.6v24.15H381V223.61h-8.59v-4.35h22.49Z"/><path class="cls-1" d="M444,219.26l-8.85,28.5h-4.79l-6.22-19.48a12.57,12.57,0,0,1-.48-1.73l-.23.93c-.08.29-.17.56-.26.8l-6.29,19.48h-4.81l-8.83-28.5h4.44a2,2,0,0,1,1.15.32,1.55,1.55,0,0,1,.62.88l4.85,17c.11.42.21.88.31,1.37s.2,1,.3,1.55c.11-.56.22-1.07.35-1.56s.26-.94.4-1.36l5.6-17a1.84,1.84,0,0,1,.62-.83,1.73,1.73,0,0,1,1.13-.37h1.56a1.8,1.8,0,0,1,1.12.33,2.08,2.08,0,0,1,.65.87l5.58,17a22.68,22.68,0,0,1,.75,2.82q.26-1.56.57-2.82l4.85-17a1.5,1.5,0,0,1,.6-.85,1.94,1.94,0,0,1,1.15-.35Z"/><path class="cls-1" d="M481.62,233.51a15.9,15.9,0,0,1-1,5.8,13.62,13.62,0,0,1-2.92,4.62,13.39,13.39,0,0,1-4.56,3,16.51,16.51,0,0,1-11.8,0,13.43,13.43,0,0,1-4.57-3,13.67,13.67,0,0,1-2.94-4.62,16.57,16.57,0,0,1,0-11.61,13.67,13.67,0,0,1,2.94-4.62,13.4,13.4,0,0,1,4.57-3,15.3,15.3,0,0,1,5.89-1.1,15.84,15.84,0,0,1,4.08.51,14.32,14.32,0,0,1,3.51,1.41,13.56,13.56,0,0,1,2.87,2.23A13.82,13.82,0,0,1,479.8,226a14.52,14.52,0,0,1,1.35,3.51A16.56,16.56,0,0,1,481.62,233.51Zm-5.42,0a13.07,13.07,0,0,0-.63-4.21,8.89,8.89,0,0,0-1.8-3.16,7.61,7.61,0,0,0-2.83-2,10.56,10.56,0,0,0-7.51,0,7.69,7.69,0,0,0-2.83,2,8.9,8.9,0,0,0-1.81,3.16,14.38,14.38,0,0,0,0,8.42,8.86,8.86,0,0,0,1.81,3.15,7.79,7.79,0,0,0,2.83,2,10.56,10.56,0,0,0,7.51,0,7.71,7.71,0,0,0,2.83-2,8.84,8.84,0,0,0,1.8-3.15A13.16,13.16,0,0,0,476.2,233.51Z"/><path class="cls-1" d="M516,247.76h-4.79a2.09,2.09,0,0,1-2-1.07l-6-9.12a2.13,2.13,0,0,0-.74-.73,2.54,2.54,0,0,0-1.2-.22h-2.26v11.14h-5.3v-28.5h8.69a18,18,0,0,1,5,.6,9.46,9.46,0,0,1,3.41,1.68,6.72,6.72,0,0,1,2,2.6,8.5,8.5,0,0,1,.63,3.32,8.7,8.7,0,0,1-.43,2.72,7.8,7.8,0,0,1-1.22,2.32,8.27,8.27,0,0,1-2,1.84,9.93,9.93,0,0,1-2.67,1.24,4.86,4.86,0,0,1,1.73,1.65Zm-13.64-14.94a8.16,8.16,0,0,0,2.61-.38,5.06,5.06,0,0,0,1.83-1,4.17,4.17,0,0,0,1.08-1.57,5.54,5.54,0,0,0,.35-2,4,4,0,0,0-1.43-3.33,6.84,6.84,0,0,0-4.36-1.16h-3.39v9.46Z"/><path class="cls-1" d="M531.91,231.2h1.25a3.21,3.21,0,0,0,1.24-.21,2,2,0,0,0,.84-.66l7.87-10a2.94,2.94,0,0,1,1-.88,3.4,3.4,0,0,1,1.37-.24h4.57l-9.59,11.84a5.24,5.24,0,0,1-1.76,1.54,4.13,4.13,0,0,1,1.18.66,5.48,5.48,0,0,1,1,1.11l9.89,13.35h-4.67a2.88,2.88,0,0,1-1.41-.27,2.3,2.3,0,0,1-.77-.78l-8.07-10.52a2,2,0,0,0-.86-.75,3.54,3.54,0,0,0-1.42-.22h-1.68v12.54h-5.3v-28.5h5.3Z"/><path class="cls-2" d="M6.51,264.71v7.17H15.1v2.58H6.51v9.08H3.32V262.13H16.59v2.58Z"/><path class="cls-2" d="M42.77,272.84a12.21,12.21,0,0,1-.76,4.4,10.32,10.32,0,0,1-2.17,3.46A9.9,9.9,0,0,1,36.48,283a12,12,0,0,1-8.67,0,9.67,9.67,0,0,1-3.35-2.26,10.17,10.17,0,0,1-2.17-3.46,12.8,12.8,0,0,1,0-8.8A10.21,10.21,0,0,1,24.46,265a9.84,9.84,0,0,1,3.35-2.27,12,12,0,0,1,8.67,0A10.07,10.07,0,0,1,39.84,265,10.37,10.37,0,0,1,42,268.44,12.29,12.29,0,0,1,42.77,272.84Zm-3.25,0a10.43,10.43,0,0,0-.52-3.43,7.25,7.25,0,0,0-1.48-2.58,6.42,6.42,0,0,0-2.33-1.63,8.59,8.59,0,0,0-6.1,0,6.5,6.5,0,0,0-2.33,1.63,7.12,7.12,0,0,0-1.49,2.58,11.57,11.57,0,0,0,0,6.86,7.29,7.29,0,0,0,1.49,2.58,6.45,6.45,0,0,0,2.33,1.61,8.59,8.59,0,0,0,6.1,0,6.37,6.37,0,0,0,2.33-1.61A7.43,7.43,0,0,0,39,276.27,10.39,10.39,0,0,0,39.52,272.84Z"/><path class="cls-2" d="M65.65,283.54H62.81a1.3,1.3,0,0,1-1.23-.67l-5.3-7.42a1.52,1.52,0,0,0-.55-.53,1.91,1.91,0,0,0-.89-.16H52.76v8.78H49.59V262.13h6.17a12.93,12.93,0,0,1,3.57.43,6.91,6.91,0,0,1,2.48,1.2,4.81,4.81,0,0,1,1.44,1.89,6.15,6.15,0,0,1,.47,2.47,6.35,6.35,0,0,1-.34,2.11,5.42,5.42,0,0,1-1,1.76,6.06,6.06,0,0,1-1.61,1.35,8,8,0,0,1-2.17.87,3.26,3.26,0,0,1,1,1Zm-10-11.09a7,7,0,0,0,2.15-.3,4.48,4.48,0,0,0,1.56-.84,3.45,3.45,0,0,0,.94-1.3,4.27,4.27,0,0,0,.31-1.66,3.31,3.31,0,0,0-1.21-2.79,5.9,5.9,0,0,0-3.65-.94h-3v7.83Z"/><path class="cls-2" d="M99.43,283.54H97a1.09,1.09,0,0,1-.69-.21,1.15,1.15,0,0,1-.39-.53l-1.89-5H84.58l-1.89,5a1.17,1.17,0,0,1-.39.51,1,1,0,0,1-.69.23H79.17l8.53-21.41h3.21Zm-6.27-8L90,267.26a18.39,18.39,0,0,1-.69-2.15q-.17.64-.33,1.2c-.12.36-.23.69-.34,1l-3.16,8.28Z"/><path class="cls-2" d="M117.19,280.87v2.67H104.94V262.13h3.17v18.74Z"/><path class="cls-2" d="M140.78,283.54h-2.45a1.08,1.08,0,0,1-.68-.21,1.15,1.15,0,0,1-.39-.53l-1.89-5h-9.44l-1.89,5a1.17,1.17,0,0,1-.39.51,1,1,0,0,1-.69.23h-2.44l8.53-21.41h3.2Zm-6.28-8-3.17-8.31a18.39,18.39,0,0,1-.69-2.15q-.16.64-.33,1.2c-.12.36-.23.69-.34,1l-3.16,8.28Z"/><path class="cls-2" d="M157.36,265.62a1.19,1.19,0,0,1-.31.37.7.7,0,0,1-.42.12,1.11,1.11,0,0,1-.61-.24c-.23-.17-.52-.35-.86-.56a7.14,7.14,0,0,0-1.23-.55,5.43,5.43,0,0,0-1.71-.24,5.12,5.12,0,0,0-1.65.24,3.69,3.69,0,0,0-1.19.67,2.81,2.81,0,0,0-.72,1,3.24,3.24,0,0,0-.25,1.25,2.3,2.3,0,0,0,.44,1.43,3.85,3.85,0,0,0,1.16,1,9.29,9.29,0,0,0,1.62.7l1.87.62a17.56,17.56,0,0,1,1.86.74,6.41,6.41,0,0,1,1.63,1.05,4.86,4.86,0,0,1,1.15,1.55,5.06,5.06,0,0,1,.44,2.24,7.3,7.3,0,0,1-.48,2.66,6.22,6.22,0,0,1-1.41,2.16,6.55,6.55,0,0,1-2.28,1.45,8.35,8.35,0,0,1-3.06.53,10.12,10.12,0,0,1-2-.2,9.27,9.27,0,0,1-1.83-.57,8.43,8.43,0,0,1-1.62-.88,7.89,7.89,0,0,1-1.35-1.15l.91-1.52a1.3,1.3,0,0,1,.32-.3.8.8,0,0,1,.43-.12,1.21,1.21,0,0,1,.72.33,11.89,11.89,0,0,0,1,.72,7.84,7.84,0,0,0,1.45.72,5.65,5.65,0,0,0,2.05.33,5.34,5.34,0,0,0,1.76-.26,3.51,3.51,0,0,0,1.3-.74,3.31,3.31,0,0,0,.82-1.17,4,4,0,0,0,.28-1.53,2.54,2.54,0,0,0-.43-1.53,3.51,3.51,0,0,0-1.15-1,8.58,8.58,0,0,0-1.62-.69l-1.87-.59a18.75,18.75,0,0,1-1.86-.7,6,6,0,0,1-1.63-1.06,4.85,4.85,0,0,1-1.15-1.62,6.08,6.08,0,0,1-.43-2.41,5.72,5.72,0,0,1,.45-2.22,5.6,5.6,0,0,1,1.3-1.9,6.61,6.61,0,0,1,2.11-1.33,7.78,7.78,0,0,1,2.87-.5,9.1,9.1,0,0,1,3.31.58,7.79,7.79,0,0,1,2.64,1.64Z"/><path class="cls-2" d="M168.51,271.39h1.05a2.56,2.56,0,0,0,.91-.14,1.64,1.64,0,0,0,.64-.49l6.81-7.91a1.87,1.87,0,0,1,.67-.56,2,2,0,0,1,.85-.16h2.72l-7.94,9.13a3.21,3.21,0,0,1-.59.62,2.85,2.85,0,0,1-.6.4,3,3,0,0,1,1.43,1.15l8.25,10.11H180a2.51,2.51,0,0,1-.51,0,1.31,1.31,0,0,1-.38-.13,1.1,1.1,0,0,1-.28-.2,1.27,1.27,0,0,1-.23-.28l-7.06-8.35a1.9,1.9,0,0,0-.29-.33,1.38,1.38,0,0,0-.35-.22,2.32,2.32,0,0,0-.44-.12,5.21,5.21,0,0,0-.6,0h-1.3v9.7h-3.17V262.13h3.17Z"/><path class="cls-2" d="M205.76,283.54h-2.45a1.08,1.08,0,0,1-.68-.21,1.15,1.15,0,0,1-.39-.53l-1.89-5h-9.44l-1.89,5a1.17,1.17,0,0,1-.39.51,1,1,0,0,1-.69.23H185.5L194,262.13h3.2Zm-6.28-8-3.17-8.31a18.39,18.39,0,0,1-.69-2.15c-.11.43-.22.83-.34,1.2s-.22.69-.33,1l-3.16,8.28Z"/><path class="cls-2" d="M233.84,274.64h-6V281h-2.37v-6.34h-6v-2.21h6v-6.3h2.37v6.3h6Z"/><path class="cls-2" d="M267.79,283.54h-2.45a1,1,0,0,1-.68-.21,1.15,1.15,0,0,1-.39-.53l-1.9-5h-9.43l-1.9,5a1.17,1.17,0,0,1-.39.51,1,1,0,0,1-.68.23h-2.45l8.53-21.41h3.21Zm-6.28-8-3.18-8.31a18.58,18.58,0,0,1-.68-2.15c-.11.43-.22.83-.34,1.2s-.22.69-.33,1l-3.16,8.28Z"/><path class="cls-2" d="M289.35,283.54h-2.84a1.3,1.3,0,0,1-1.23-.67l-5.3-7.42a1.52,1.52,0,0,0-.55-.53,1.91,1.91,0,0,0-.89-.16h-2.08v8.78h-3.17V262.13h6.17a12.93,12.93,0,0,1,3.57.43,6.91,6.91,0,0,1,2.48,1.2,4.81,4.81,0,0,1,1.44,1.89,6.15,6.15,0,0,1,.47,2.47,6.35,6.35,0,0,1-.34,2.11,5.42,5.42,0,0,1-1,1.76,6.06,6.06,0,0,1-1.61,1.35,8,8,0,0,1-2.17.87,3.26,3.26,0,0,1,1,1Zm-10-11.09a7,7,0,0,0,2.15-.3,4.48,4.48,0,0,0,1.56-.84A3.45,3.45,0,0,0,284,270a4.27,4.27,0,0,0,.31-1.66,3.31,3.31,0,0,0-1.21-2.79,5.9,5.9,0,0,0-3.65-.94h-3v7.83Z"/><path class="cls-2" d="M309.64,279a.6.6,0,0,1,.46.21l1.25,1.37a8.91,8.91,0,0,1-3.19,2.4,11,11,0,0,1-4.55.85,10.75,10.75,0,0,1-4.21-.8,9.34,9.34,0,0,1-3.22-2.26,9.94,9.94,0,0,1-2.06-3.45,12.87,12.87,0,0,1-.73-4.43,12.37,12.37,0,0,1,.76-4.43,10.2,10.2,0,0,1,2.16-3.46,9.48,9.48,0,0,1,3.32-2.25,10.9,10.9,0,0,1,4.27-.81,10.13,10.13,0,0,1,7.14,2.73l-1,1.48a1,1,0,0,1-.26.27.76.76,0,0,1-.41.1,1.19,1.19,0,0,1-.67-.28,9.39,9.39,0,0,0-1-.64,8.2,8.2,0,0,0-1.52-.63,7.77,7.77,0,0,0-2.27-.28,7.48,7.48,0,0,0-2.92.55,6.54,6.54,0,0,0-2.29,1.62,7.27,7.27,0,0,0-1.49,2.58,10.25,10.25,0,0,0-.53,3.45,10.07,10.07,0,0,0,.55,3.47,7.57,7.57,0,0,0,1.52,2.58A6.49,6.49,0,0,0,301,280.5a7.21,7.21,0,0,0,2.83.55,10.63,10.63,0,0,0,1.67-.11,7.41,7.41,0,0,0,1.35-.33A5.32,5.32,0,0,0,308,280a7.41,7.41,0,0,0,1.09-.84,1.06,1.06,0,0,1,.26-.17A.55.55,0,0,1,309.64,279Z"/><path class="cls-2" d="M332,264.78h-6.8v18.76H322V264.78H315.2v-2.65H332Z"/><path class="cls-2" d="M341.1,283.54h-3.19V262.13h3.19Z"/><path class="cls-2" d="M364.17,279a.6.6,0,0,1,.46.21l1.25,1.37a8.86,8.86,0,0,1-3.2,2.4,10.92,10.92,0,0,1-4.54.85,10.75,10.75,0,0,1-4.21-.8,9.24,9.24,0,0,1-3.22-2.26,10.12,10.12,0,0,1-2.07-3.45,13.11,13.11,0,0,1-.73-4.43,12.37,12.37,0,0,1,.77-4.43,10,10,0,0,1,2.16-3.46,9.53,9.53,0,0,1,3.31-2.25,11,11,0,0,1,4.28-.81,10.3,10.3,0,0,1,4.05.75,10.49,10.49,0,0,1,3.09,2l-1.05,1.48a.84.84,0,0,1-.26.27.71.71,0,0,1-.41.1,1.14,1.14,0,0,1-.66-.28,10.54,10.54,0,0,0-1-.64,8,8,0,0,0-1.53-.63,7.65,7.65,0,0,0-2.26-.28,7.53,7.53,0,0,0-2.93.55,6.6,6.6,0,0,0-2.28,1.62,7.28,7.28,0,0,0-1.5,2.58,10.5,10.5,0,0,0-.53,3.45,10.06,10.06,0,0,0,.56,3.47,7.41,7.41,0,0,0,1.52,2.58,6.32,6.32,0,0,0,2.28,1.61,7.18,7.18,0,0,0,2.83.55,10.42,10.42,0,0,0,1.66-.11,7.32,7.32,0,0,0,1.36-.33,5.8,5.8,0,0,0,1.17-.58,7.41,7.41,0,0,0,1.09-.84,1,1,0,0,1,.25-.17A.59.59,0,0,1,364.17,279Z"/><path class="cls-2" d="M390,262.13a11.93,11.93,0,0,1,3.58.48,7,7,0,0,1,2.52,1.35,5.23,5.23,0,0,1,1.48,2.11,7.77,7.77,0,0,1,0,5.51,5.94,5.94,0,0,1-1.54,2.17,7.27,7.27,0,0,1-2.53,1.41,11.21,11.21,0,0,1-3.48.49h-3.31v7.89h-3.17V262.13Zm0,11a6.59,6.59,0,0,0,2.13-.31,4.26,4.26,0,0,0,1.53-.89,3.71,3.71,0,0,0,.93-1.37,4.77,4.77,0,0,0,.32-1.77,4,4,0,0,0-1.22-3.07,5.27,5.27,0,0,0-3.69-1.12h-3.31v8.53Z"/><path class="cls-2" d="M416.61,280.87v2.67H404.35V262.13h3.18v18.74Z"/><path class="cls-2" d="M440.19,283.54h-2.44a1.09,1.09,0,0,1-.69-.21,1.07,1.07,0,0,1-.38-.53l-1.9-5h-9.44l-1.89,5a1.17,1.17,0,0,1-.39.51,1,1,0,0,1-.68.23h-2.45l8.53-21.41h3.21Zm-6.27-8-3.18-8.31a16.82,16.82,0,0,1-.68-2.15c-.11.43-.23.83-.34,1.2s-.23.69-.34,1l-3.16,8.28Z"/><path class="cls-2" d="M463.23,262.13v21.41h-1.61a1.29,1.29,0,0,1-.62-.13,1.88,1.88,0,0,1-.5-.43l-12.09-15.65c0,.27,0,.54,0,.79s0,.51,0,.74v14.68H445.7V262.13h1.64a1.45,1.45,0,0,1,.62.1,1.32,1.32,0,0,1,.47.44l12.12,15.65c0-.28-.06-.57-.07-.84s0-.53,0-.77V262.13Z"/><path class="cls-2" d="M488.89,262.13v21.41h-1.61a1.29,1.29,0,0,1-.62-.13,1.88,1.88,0,0,1-.5-.43l-12.09-15.65c0,.27,0,.54.05.79s0,.51,0,.74v14.68h-2.79V262.13H473a1.42,1.42,0,0,1,.62.1,1.32,1.32,0,0,1,.47.44l12.12,15.65c0-.28,0-.57-.07-.84s0-.53,0-.77V262.13Z"/><path class="cls-2" d="M500.21,283.54H497V262.13h3.19Z"/><path class="cls-2" d="M525.85,262.13v21.41h-1.61a1.25,1.25,0,0,1-.61-.13,1.62,1.62,0,0,1-.5-.43L511,267.33c0,.27,0,.54.06.79s0,.51,0,.74v14.68h-2.79V262.13H510a1.47,1.47,0,0,1,.63.1,1.31,1.31,0,0,1,.46.44l12.12,15.65c0-.28,0-.57-.07-.84s0-.53,0-.77V262.13Z"/><path class="cls-2" d="M551.46,273.12v8.35a12.36,12.36,0,0,1-3.46,1.74,13.47,13.47,0,0,1-4,.57,13.15,13.15,0,0,1-4.69-.8,10.23,10.23,0,0,1-3.57-2.26,9.83,9.83,0,0,1-2.27-3.45,11.79,11.79,0,0,1-.8-4.43,12.23,12.23,0,0,1,.77-4.45,9.62,9.62,0,0,1,2.2-3.46,9.9,9.9,0,0,1,3.46-2.24,12.48,12.48,0,0,1,4.57-.8,13.55,13.55,0,0,1,2.38.2,11.27,11.27,0,0,1,2,.55,10.37,10.37,0,0,1,3.22,2l-.91,1.43a.88.88,0,0,1-.55.43.94.94,0,0,1-.75-.16l-.86-.52a6.15,6.15,0,0,0-1.12-.55,8.31,8.31,0,0,0-1.51-.43,10.17,10.17,0,0,0-2-.18,8.49,8.49,0,0,0-3.18.57,6.56,6.56,0,0,0-2.41,1.65,7.33,7.33,0,0,0-1.54,2.58,10.06,10.06,0,0,0-.54,3.4,10.19,10.19,0,0,0,.57,3.52,7.45,7.45,0,0,0,1.6,2.64,6.82,6.82,0,0,0,2.52,1.65,9.21,9.21,0,0,0,3.32.57,9.41,9.41,0,0,0,1.34-.09,8.8,8.8,0,0,0,1.18-.23,8.36,8.36,0,0,0,1.1-.37c.35-.15.7-.31,1.05-.49v-4.49h-3.16a.69.69,0,0,1-.49-.18.61.61,0,0,1-.18-.45v-1.8Z"/></svg>