<?xml version="1.0" encoding="utf-8"?>
<!-- Generator: Adobe Illustrator 16.0.0, SVG Export Plug-In . SVG Version: 6.00 Build 0)  -->
<!DOCTYPE svg PUBLIC "-//W3C//DTD SVG 1.1//EN" "http://www.w3.org/Graphics/SVG/1.1/DTD/svg11.dtd">
<svg version="1.1" id="Layer_1" xmlns="http://www.w3.org/2000/svg" xmlns:xlink="http://www.w3.org/1999/xlink" x="0px" y="0px"
	 width="111.479px" height="100.069px" viewBox="0 0 111.479 100.069" enable-background="new 0 0 111.479 100.069"
	 xml:space="preserve">
<path fill="#00558B" d="M8.104,59.991v5.414c0,1.357-1.027,2.438-2.711,2.438c-1.291,0-2.626-0.731-2.626-2.646v-5.03l1.444-0.176
	v4.998c0,0.657,0.121,1.466,1.247,1.466c1.006,0,1.204-0.689,1.204-1.584v-4.704L8.104,59.991z"/>
<polygon fill="#00558B" points="12.548,67.844 12.548,59.991 12.581,59.991 17.064,64.53 17.064,60.167 18.509,59.991 
	18.509,67.844 18.476,67.844 13.991,63.36 13.991,67.67 "/>
<polygon fill="#00558B" points="23.02,67.757 23.02,60.167 24.463,59.991 24.463,67.67 "/>
<polygon fill="#00558B" points="31.249,64.705 33.087,59.991 34.542,60.167 31.26,67.844 31.239,67.844 28.045,60.167 
	29.586,59.991 "/>
<polygon fill="#00558B" points="38.079,67.67 38.079,60.167 42.114,60.167 42.355,61.554 39.522,61.554 39.522,63.055 
	41.798,63.055 41.798,64.442 39.522,64.442 39.522,66.281 42.706,66.281 42.246,67.67 "/>
<path fill="#00558B" d="M46.615,60.167h2.406c1.443,0,2.581,0.699,2.581,2.307c0,0.93-0.558,1.685-1.444,1.969l2.045,3.02
	l-1.575,0.382l-2.549-3.925h-0.022v3.751l-1.443,0.087V60.167z M48.058,63.567h0.526c0.711,0,1.4-0.207,1.4-1.052
	c0-0.861-0.657-0.962-1.367-0.962h-0.559V63.567z"/>
<path fill="#00558B" d="M56.312,65.646c0.371,0.415,0.634,0.809,1.443,0.809c0.516,0,0.962-0.404,0.962-0.863
	c0-1.487-3.269-0.646-3.269-3.304c0-1.433,1.072-2.297,2.559-2.297c0.745,0,1.652,0.414,2.1,1.017l-0.896,1.051
	c-0.351-0.372-0.886-0.677-1.291-0.677c-0.505,0-0.962,0.217-0.962,0.906c0,1.279,3.27,0.359,3.27,3.313
	c0,1.367-1.138,2.242-2.548,2.242c-0.94,0-1.728-0.394-2.362-1.17L56.312,65.646z"/>
<polygon fill="#00558B" points="64.372,67.757 64.372,60.167 65.816,59.991 65.816,67.67 "/>
<polygon fill="#00558B" points="69.834,60.167 74.842,60.167 74.842,61.554 72.973,61.554 72.973,67.67 71.527,67.757 
	71.527,61.554 69.483,61.554 "/>
<polygon fill="#00558B" points="78.06,60.385 79.462,59.991 81.198,63.448 82.675,59.991 84.097,60.385 80.75,67.844 79.263,67.539 
	80.487,64.979 "/>
<path fill="#00558B" d="M97.124,59.991c2.166,0,3.961,1.751,3.961,3.928c0,2.175-1.795,3.925-3.961,3.925s-3.96-1.75-3.96-3.925
	C93.164,61.742,94.958,59.991,97.124,59.991 M97.124,66.367c1.334,0,2.45-1.115,2.45-2.448c0-1.337-1.116-2.45-2.45-2.45
	s-2.449,1.113-2.449,2.45C94.675,65.252,95.79,66.367,97.124,66.367"/>
<polygon fill="#00558B" points="105.157,60.167 109.02,60.167 109.336,61.554 106.603,61.554 106.603,63.273 108.625,63.273 
	108.625,64.661 106.603,64.661 106.603,67.67 105.157,67.844 "/>
<path fill="#00558B" d="M2.249,86.991l8.386-16.939h0.048l8.702,16.939l-3.427,0.511l-1.993-4.229H7.572l-1.945,4.229L2.249,86.991z
	 M8.835,80.454h3.744l-1.921-4.521L8.835,80.454z"/>
<polygon fill="#00558B" points="24.241,87.114 24.241,70.44 27.448,70.052 27.448,84.027 33.524,84.027 32.723,87.114 "/>
<path fill="#00558B" d="M37.205,86.991l8.386-16.939h0.049l8.7,16.939l-3.425,0.511l-1.995-4.229h-6.392l-1.945,4.229L37.205,86.991
	z M43.792,80.454h3.743l-1.92-4.521L43.792,80.454z"/>
<path fill="#00558B" d="M60.443,82.617c0.826,0.925,1.409,1.798,3.208,1.798c1.143,0,2.139-0.897,2.139-1.919
	c0-3.306-7.267-1.434-7.267-7.34c0-3.186,2.381-5.104,5.687-5.104c1.655,0,3.671,0.924,4.669,2.262l-1.994,2.332
	c-0.778-0.827-1.97-1.507-2.868-1.507c-1.12,0-2.141,0.485-2.141,2.018c0,2.844,7.268,0.803,7.268,7.365
	c0,3.037-2.526,4.98-5.662,4.98c-2.09,0-3.84-0.873-5.25-2.599L60.443,82.617z"/>
<polygon fill="#00558B" points="84.368,70.052 87.454,71.315 82.059,78.242 87.649,86.31 84.345,87.502 78.511,78.51 78.462,78.51 
	78.462,87.114 75.254,87.309 75.254,70.44 78.462,70.052 78.462,77.781 78.511,77.781 "/>
<path fill="#00558B" d="M91.383,86.991l8.386-16.939h0.049l8.702,16.939l-3.429,0.511l-1.992-4.229h-6.393l-1.944,4.229
	L91.383,86.991z M97.97,80.454h3.744l-1.922-4.521L97.97,80.454z"/>
<polygon fill="#00558B" points="2.489,91.538 6.779,91.538 7.131,93.082 4.093,93.082 4.093,94.988 6.341,94.988 6.341,96.532 
	4.093,96.532 4.093,99.875 2.489,100.069 "/>
<path fill="#00558B" d="M12.32,99.816l4.193-8.474h0.024l4.351,8.474l-1.714,0.253l-0.997-2.116h-3.196l-0.972,2.116L12.32,99.816z
	 M15.614,96.544h1.873l-0.961-2.26L15.614,96.544z"/>
<polygon fill="#00558B" points="27.594,99.972 27.594,91.538 29.198,91.343 29.198,99.875 "/>
<path fill="#00558B" d="M36.958,91.538h2.674c1.604,0,2.867,0.778,2.867,2.564c0,1.031-0.62,1.872-1.604,2.187l2.272,3.355
	l-1.749,0.425l-2.833-4.363h-0.024v4.169l-1.604,0.097V91.538z M38.563,95.317h0.583c0.791,0,1.556-0.23,1.556-1.167
	c0-0.961-0.729-1.068-1.52-1.068h-0.62V95.317z"/>
<path fill="#00558B" d="M49.927,91.538h2.868c1.993,0,2.43,1.495,2.43,2.284c0,0.765-0.425,1.397-1.117,1.714
	c0.912,0.316,1.543,1.032,1.543,2.043c0,1.262-0.983,2.296-2.576,2.296h-3.147V91.538z M51.531,94.953h0.887
	c0.633,0,1.07-0.4,1.07-0.937c0-0.535-0.437-0.935-1.07-0.935h-0.887V94.953z M51.531,98.331h0.839c1.093,0,1.483-0.329,1.483-1.045
	c0-0.718-0.39-1.045-1.483-1.045h-0.839V98.331z"/>
<path fill="#00558B" d="M61.668,99.816l4.192-8.474h0.026l4.351,8.474l-1.713,0.253l-0.998-2.116H64.33l-0.973,2.116L61.668,99.816z
	 M64.963,96.544h1.871l-0.961-2.26L64.963,96.544z"/>
<polygon fill="#00558B" points="76.869,100.069 76.869,91.343 76.907,91.343 81.889,96.388 81.889,91.538 83.492,91.343 
	83.492,100.069 83.457,100.069 78.474,95.087 78.474,99.875 "/>
<polygon fill="#00558B" points="95.753,91.343 97.295,91.976 94.599,95.439 97.393,99.474 95.742,100.069 92.823,95.571 
	92.8,95.571 92.8,99.875 91.194,99.972 91.194,91.538 92.8,91.343 92.8,95.208 92.823,95.208 "/>
<path fill="#00558B" d="M104.722,97.627c0.413,0.461,0.703,0.898,1.604,0.898c0.572,0,1.068-0.45,1.068-0.959
	c0-1.653-3.633-0.72-3.633-3.672c0-1.59,1.191-2.552,2.845-2.552c0.825,0,1.834,0.462,2.332,1.131l-0.997,1.166
	c-0.389-0.413-0.983-0.753-1.435-0.753c-0.559,0-1.068,0.243-1.068,1.008c0,1.423,3.634,0.402,3.634,3.685
	c0,1.518-1.265,2.49-2.831,2.49c-1.047,0-1.922-0.438-2.625-1.302L104.722,97.627z"/>
<polygon fill="#00558B" points="91.592,54.742 82.29,54.742 73.382,26.035 73.383,0.662 110.871,0.662 110.871,12.651 
	91.727,12.651 91.727,17.391 106.397,17.391 106.397,29.494 91.592,29.494 "/>
<polygon fill="none" stroke="#FFFFFF" stroke-width="1.2153" stroke-miterlimit="3.864" points="91.592,54.742 82.29,54.742 
	73.382,26.035 73.383,0.662 110.871,0.662 110.871,12.651 91.727,12.651 91.727,17.391 106.397,17.391 106.397,29.494 
	91.592,29.494 "/>
<path fill="#00558B" d="M17.599,0.607l0.002,35.71c0,0-0.181,2.375,1.809,2.377c2.215,0.002,2.008-2.366,2.008-2.366L21.401,0.607
	h16.753v24.267L28.051,54.688h1.337c-2.293,0.395-5.181,0.641-8.819,0.641c-18.976,0-19.961-6.178-19.961-6.178V0.607H17.599z"/>
<path fill="none" stroke="#FFFFFF" stroke-width="1.2153" stroke-miterlimit="3.864" d="M17.599,0.607l0.002,35.71
	c0,0-0.181,2.375,1.809,2.377c2.215,0.002,2.008-2.366,2.008-2.366L21.401,0.607h16.753v24.267L28.051,54.688h1.337
	c-2.293,0.395-5.181,0.641-8.819,0.641c-18.976,0-19.961-6.178-19.961-6.178V0.607H17.599z"/>
<polygon fill="#00558B" points="28.116,54.727 82.112,54.734 65.276,0.667 46.341,0.667 "/>
<polygon fill="none" stroke="#FFFFFF" stroke-width="1.2153" stroke-miterlimit="3.864" points="28.116,54.727 82.112,54.734 
	65.276,0.667 46.341,0.667 "/>
<path fill-rule="evenodd" clip-rule="evenodd" fill="#FFFFFF" d="M71.044,51.649h8.048l-0.479-1.532h-7.288
	c0.129-0.746,0.269-1.603,0.399-2.526h6.097l-0.48-1.535h-5.416c0.102-0.82,0.187-1.67,0.254-2.525h4.371l-0.479-1.533h-3.796
	c0.137-3.062-0.067-5.979-1.062-7.554c-3.418-5.403-10.991-7.236-14.824-8.487l-0.446,1.575l-1.395-0.522l0.442-1.57
	c0.608-1.784,0.228-3.15,4.1-2.809c0.332-0.32,1.268-2.17,1.063-2.581c-1.073-0.547-3.685-1.139-3.685-1.139
	s-0.553-0.777-1.252-1.063c-1.538-0.631-3.185-0.742-4.905-0.063c-0.174-0.099-0.875-0.394-1.465-0.109
	c-0.952,0.458-0.768,1.216-0.766,1.247c-0.186,0.149-0.223,0.228-0.377,0.396c-1.113,1.199-1.876,2.495-2.519,3.987
	c-0.119,0.277-1.484,3.015-2.015,5.079c-1.045,4.076-1.072,7.328,0,10.789c0.308,0.99,0.44,1.943,0.58,2.877h-9.35l-0.524,1.534
	h10.147c0.188,0.844,0.468,1.681,0.983,2.527H33.006l-0.525,1.533h13.684c0.514,0.608,1.122,1.292,1.628,1.852
	c1.248-0.594,2.043-1.617,2.503-3.042l-0.817-6.105l-0.912-0.589l1.138-1.233l1.087,0.888l0.931,7.157
	c-0.461,1.54-1.058,2.662-1.991,3.445H31.667l-0.524,1.534h15.233l-8.182,3.1h36.592l-4.012-1.665
	C70.774,52.986,70.885,52.488,71.044,51.649 M60.979,50.1l1.224-2.36l-0.525-2.559l-3.053-1.272
	c-0.359,1.747-0.916,3.517-1.667,5.493l-1.606,0.162c1.809-4.217,2.57-8.363,2.307-12.448l1.397,0.217
	c0.118,1.845,0.058,3.516-0.185,5.164l4.034,1.681l1.384,7.013L60.979,50.1z"/>
<polygon fill="#00558B" points="96.053,51.136 96.904,51.136 96.904,53.719 97.509,53.681 97.509,51.136 98.286,51.136 
	98.286,50.557 96.197,50.557 "/>
<polygon fill="#00558B" points="98.952,53.753 99.189,52.166 99.197,52.166 99.977,53.753 99.986,53.753 100.751,52.166 
	100.76,52.166 101.011,53.753 101.602,53.681 101.008,50.483 100.998,50.483 99.979,52.578 98.965,50.483 98.957,50.483 
	98.373,53.681 "/>
</svg>
